G04 #@! TF.GenerationSoftware,KiCad,Pcbnew,7.0.9*
G04 #@! TF.CreationDate,2023-11-27T12:39:36-05:00*
G04 #@! TF.ProjectId,GE_3T_Wantcom_motherboard,47455f33-545f-4576-916e-74636f6d5f6d,0*
G04 #@! TF.SameCoordinates,Original*
G04 #@! TF.FileFunction,Soldermask,Top*
G04 #@! TF.FilePolarity,Negative*
%FSLAX46Y46*%
G04 Gerber Fmt 4.6, Leading zero omitted, Abs format (unit mm)*
G04 Created by KiCad (PCBNEW 7.0.9) date 2023-11-27 12:39:36*
%MOMM*%
%LPD*%
G01*
G04 APERTURE LIST*
G04 Aperture macros list*
%AMRoundRect*
0 Rectangle with rounded corners*
0 $1 Rounding radius*
0 $2 $3 $4 $5 $6 $7 $8 $9 X,Y pos of 4 corners*
0 Add a 4 corners polygon primitive as box body*
4,1,4,$2,$3,$4,$5,$6,$7,$8,$9,$2,$3,0*
0 Add four circle primitives for the rounded corners*
1,1,$1+$1,$2,$3*
1,1,$1+$1,$4,$5*
1,1,$1+$1,$6,$7*
1,1,$1+$1,$8,$9*
0 Add four rect primitives between the rounded corners*
20,1,$1+$1,$2,$3,$4,$5,0*
20,1,$1+$1,$4,$5,$6,$7,0*
20,1,$1+$1,$6,$7,$8,$9,0*
20,1,$1+$1,$8,$9,$2,$3,0*%
G04 Aperture macros list end*
%ADD10C,3.500000*%
%ADD11C,2.920000*%
%ADD12R,1.500000X1.500000*%
%ADD13RoundRect,0.218750X0.381250X-0.218750X0.381250X0.218750X-0.381250X0.218750X-0.381250X-0.218750X0*%
%ADD14R,0.990600X3.251200*%
%ADD15RoundRect,0.250000X0.312500X1.450000X-0.312500X1.450000X-0.312500X-1.450000X0.312500X-1.450000X0*%
%ADD16R,3.251200X0.990600*%
%ADD17R,2.360000X1.270000*%
%ADD18R,0.838200X0.889000*%
%ADD19R,0.889000X2.057400*%
%ADD20RoundRect,0.225000X-0.250000X0.225000X-0.250000X-0.225000X0.250000X-0.225000X0.250000X0.225000X0*%
G04 APERTURE END LIST*
D10*
X158000000Y-114750000D03*
X167500000Y-102500000D03*
X202500000Y-102500000D03*
X202500000Y-114750000D03*
D11*
X178400000Y-106450000D03*
X192500000Y-106450000D03*
X178400000Y-102750000D03*
X178400000Y-114250000D03*
D12*
X181450000Y-102450000D03*
X181450000Y-106450000D03*
X181450000Y-110450000D03*
X181450000Y-114450000D03*
X185450000Y-102450000D03*
X185450000Y-106450000D03*
X185450000Y-110450000D03*
X185450000Y-114450000D03*
X189450000Y-102450000D03*
X189450000Y-106450000D03*
X189450000Y-110450000D03*
X189450000Y-114450000D03*
D11*
X192500000Y-102750000D03*
X192500000Y-114250000D03*
D13*
X175000000Y-109125000D03*
X175000000Y-107000000D03*
D14*
X159511300Y-106250000D03*
X156488700Y-106250000D03*
D15*
X200117500Y-106500000D03*
X195842500Y-106500000D03*
D16*
X163000000Y-107488700D03*
X163000000Y-110511300D03*
D17*
X167750000Y-114145000D03*
X167750000Y-111355000D03*
D14*
X159511300Y-110500000D03*
X156488700Y-110500000D03*
D18*
X162750000Y-103548399D03*
D19*
X161250000Y-101999990D03*
X164250000Y-101999990D03*
D14*
X196488700Y-110740000D03*
X199511300Y-110740000D03*
X170988700Y-112000000D03*
X174011300Y-112000000D03*
D16*
X167750000Y-105738700D03*
X167750000Y-108761300D03*
D20*
X204250000Y-107475000D03*
X204250000Y-109025000D03*
D16*
X163000000Y-112488700D03*
X163000000Y-115511300D03*
D14*
X171000000Y-104250000D03*
X174022600Y-104250000D03*
M02*
