G04 #@! TF.GenerationSoftware,KiCad,Pcbnew,7.0.9*
G04 #@! TF.CreationDate,2023-11-27T12:39:36-05:00*
G04 #@! TF.ProjectId,GE_3T_Wantcom_motherboard,47455f33-545f-4576-916e-74636f6d5f6d,0*
G04 #@! TF.SameCoordinates,Original*
G04 #@! TF.FileFunction,Legend,Bot*
G04 #@! TF.FilePolarity,Positive*
%FSLAX46Y46*%
G04 Gerber Fmt 4.6, Leading zero omitted, Abs format (unit mm)*
G04 Created by KiCad (PCBNEW 7.0.9) date 2023-11-27 12:39:36*
%MOMM*%
%LPD*%
G01*
G04 APERTURE LIST*
%ADD10C,0.150000*%
%ADD11C,0.100000*%
%ADD12C,0.508000*%
%ADD13C,0.120000*%
G04 APERTURE END LIST*
D10*
X179166666Y-110679580D02*
X179214285Y-110727200D01*
X179214285Y-110727200D02*
X179357142Y-110774819D01*
X179357142Y-110774819D02*
X179452380Y-110774819D01*
X179452380Y-110774819D02*
X179595237Y-110727200D01*
X179595237Y-110727200D02*
X179690475Y-110631961D01*
X179690475Y-110631961D02*
X179738094Y-110536723D01*
X179738094Y-110536723D02*
X179785713Y-110346247D01*
X179785713Y-110346247D02*
X179785713Y-110203390D01*
X179785713Y-110203390D02*
X179738094Y-110012914D01*
X179738094Y-110012914D02*
X179690475Y-109917676D01*
X179690475Y-109917676D02*
X179595237Y-109822438D01*
X179595237Y-109822438D02*
X179452380Y-109774819D01*
X179452380Y-109774819D02*
X179357142Y-109774819D01*
X179357142Y-109774819D02*
X179214285Y-109822438D01*
X179214285Y-109822438D02*
X179166666Y-109870057D01*
X178833332Y-109774819D02*
X178214285Y-109774819D01*
X178214285Y-109774819D02*
X178547618Y-110155771D01*
X178547618Y-110155771D02*
X178404761Y-110155771D01*
X178404761Y-110155771D02*
X178309523Y-110203390D01*
X178309523Y-110203390D02*
X178261904Y-110251009D01*
X178261904Y-110251009D02*
X178214285Y-110346247D01*
X178214285Y-110346247D02*
X178214285Y-110584342D01*
X178214285Y-110584342D02*
X178261904Y-110679580D01*
X178261904Y-110679580D02*
X178309523Y-110727200D01*
X178309523Y-110727200D02*
X178404761Y-110774819D01*
X178404761Y-110774819D02*
X178690475Y-110774819D01*
X178690475Y-110774819D02*
X178785713Y-110727200D01*
X178785713Y-110727200D02*
X178833332Y-110679580D01*
X169166666Y-116954819D02*
X169642856Y-116954819D01*
X169642856Y-116954819D02*
X169642856Y-115954819D01*
X168404761Y-116288152D02*
X168404761Y-116954819D01*
X168642856Y-115907200D02*
X168880951Y-116621485D01*
X168880951Y-116621485D02*
X168261904Y-116621485D01*
X192855357Y-110679580D02*
X192902976Y-110727200D01*
X192902976Y-110727200D02*
X193045833Y-110774819D01*
X193045833Y-110774819D02*
X193141071Y-110774819D01*
X193141071Y-110774819D02*
X193283928Y-110727200D01*
X193283928Y-110727200D02*
X193379166Y-110631961D01*
X193379166Y-110631961D02*
X193426785Y-110536723D01*
X193426785Y-110536723D02*
X193474404Y-110346247D01*
X193474404Y-110346247D02*
X193474404Y-110203390D01*
X193474404Y-110203390D02*
X193426785Y-110012914D01*
X193426785Y-110012914D02*
X193379166Y-109917676D01*
X193379166Y-109917676D02*
X193283928Y-109822438D01*
X193283928Y-109822438D02*
X193141071Y-109774819D01*
X193141071Y-109774819D02*
X193045833Y-109774819D01*
X193045833Y-109774819D02*
X192902976Y-109822438D01*
X192902976Y-109822438D02*
X192855357Y-109870057D01*
X192474404Y-109870057D02*
X192426785Y-109822438D01*
X192426785Y-109822438D02*
X192331547Y-109774819D01*
X192331547Y-109774819D02*
X192093452Y-109774819D01*
X192093452Y-109774819D02*
X191998214Y-109822438D01*
X191998214Y-109822438D02*
X191950595Y-109870057D01*
X191950595Y-109870057D02*
X191902976Y-109965295D01*
X191902976Y-109965295D02*
X191902976Y-110060533D01*
X191902976Y-110060533D02*
X191950595Y-110203390D01*
X191950595Y-110203390D02*
X192522023Y-110774819D01*
X192522023Y-110774819D02*
X191902976Y-110774819D01*
X191283928Y-109774819D02*
X191188690Y-109774819D01*
X191188690Y-109774819D02*
X191093452Y-109822438D01*
X191093452Y-109822438D02*
X191045833Y-109870057D01*
X191045833Y-109870057D02*
X190998214Y-109965295D01*
X190998214Y-109965295D02*
X190950595Y-110155771D01*
X190950595Y-110155771D02*
X190950595Y-110393866D01*
X190950595Y-110393866D02*
X190998214Y-110584342D01*
X190998214Y-110584342D02*
X191045833Y-110679580D01*
X191045833Y-110679580D02*
X191093452Y-110727200D01*
X191093452Y-110727200D02*
X191188690Y-110774819D01*
X191188690Y-110774819D02*
X191283928Y-110774819D01*
X191283928Y-110774819D02*
X191379166Y-110727200D01*
X191379166Y-110727200D02*
X191426785Y-110679580D01*
X191426785Y-110679580D02*
X191474404Y-110584342D01*
X191474404Y-110584342D02*
X191522023Y-110393866D01*
X191522023Y-110393866D02*
X191522023Y-110155771D01*
X191522023Y-110155771D02*
X191474404Y-109965295D01*
X191474404Y-109965295D02*
X191426785Y-109870057D01*
X191426785Y-109870057D02*
X191379166Y-109822438D01*
X191379166Y-109822438D02*
X191283928Y-109774819D01*
X198166666Y-108544819D02*
X198642856Y-108544819D01*
X198642856Y-108544819D02*
X198642856Y-107544819D01*
X197880951Y-107640057D02*
X197833332Y-107592438D01*
X197833332Y-107592438D02*
X197738094Y-107544819D01*
X197738094Y-107544819D02*
X197499999Y-107544819D01*
X197499999Y-107544819D02*
X197404761Y-107592438D01*
X197404761Y-107592438D02*
X197357142Y-107640057D01*
X197357142Y-107640057D02*
X197309523Y-107735295D01*
X197309523Y-107735295D02*
X197309523Y-107830533D01*
X197309523Y-107830533D02*
X197357142Y-107973390D01*
X197357142Y-107973390D02*
X197928570Y-108544819D01*
X197928570Y-108544819D02*
X197309523Y-108544819D01*
X185039580Y-112608333D02*
X185087200Y-112560714D01*
X185087200Y-112560714D02*
X185134819Y-112417857D01*
X185134819Y-112417857D02*
X185134819Y-112322619D01*
X185134819Y-112322619D02*
X185087200Y-112179762D01*
X185087200Y-112179762D02*
X184991961Y-112084524D01*
X184991961Y-112084524D02*
X184896723Y-112036905D01*
X184896723Y-112036905D02*
X184706247Y-111989286D01*
X184706247Y-111989286D02*
X184563390Y-111989286D01*
X184563390Y-111989286D02*
X184372914Y-112036905D01*
X184372914Y-112036905D02*
X184277676Y-112084524D01*
X184277676Y-112084524D02*
X184182438Y-112179762D01*
X184182438Y-112179762D02*
X184134819Y-112322619D01*
X184134819Y-112322619D02*
X184134819Y-112417857D01*
X184134819Y-112417857D02*
X184182438Y-112560714D01*
X184182438Y-112560714D02*
X184230057Y-112608333D01*
X184230057Y-112989286D02*
X184182438Y-113036905D01*
X184182438Y-113036905D02*
X184134819Y-113132143D01*
X184134819Y-113132143D02*
X184134819Y-113370238D01*
X184134819Y-113370238D02*
X184182438Y-113465476D01*
X184182438Y-113465476D02*
X184230057Y-113513095D01*
X184230057Y-113513095D02*
X184325295Y-113560714D01*
X184325295Y-113560714D02*
X184420533Y-113560714D01*
X184420533Y-113560714D02*
X184563390Y-113513095D01*
X184563390Y-113513095D02*
X185134819Y-112941667D01*
X185134819Y-112941667D02*
X185134819Y-113560714D01*
X192379166Y-111884819D02*
X192855356Y-111884819D01*
X192855356Y-111884819D02*
X192855356Y-110884819D01*
X192141070Y-110884819D02*
X191474404Y-110884819D01*
X191474404Y-110884819D02*
X191902975Y-111884819D01*
X179166666Y-111884819D02*
X179642856Y-111884819D01*
X179642856Y-111884819D02*
X179642856Y-110884819D01*
X178404761Y-110884819D02*
X178595237Y-110884819D01*
X178595237Y-110884819D02*
X178690475Y-110932438D01*
X178690475Y-110932438D02*
X178738094Y-110980057D01*
X178738094Y-110980057D02*
X178833332Y-111122914D01*
X178833332Y-111122914D02*
X178880951Y-111313390D01*
X178880951Y-111313390D02*
X178880951Y-111694342D01*
X178880951Y-111694342D02*
X178833332Y-111789580D01*
X178833332Y-111789580D02*
X178785713Y-111837200D01*
X178785713Y-111837200D02*
X178690475Y-111884819D01*
X178690475Y-111884819D02*
X178499999Y-111884819D01*
X178499999Y-111884819D02*
X178404761Y-111837200D01*
X178404761Y-111837200D02*
X178357142Y-111789580D01*
X178357142Y-111789580D02*
X178309523Y-111694342D01*
X178309523Y-111694342D02*
X178309523Y-111456247D01*
X178309523Y-111456247D02*
X178357142Y-111361009D01*
X178357142Y-111361009D02*
X178404761Y-111313390D01*
X178404761Y-111313390D02*
X178499999Y-111265771D01*
X178499999Y-111265771D02*
X178690475Y-111265771D01*
X178690475Y-111265771D02*
X178785713Y-111313390D01*
X178785713Y-111313390D02*
X178833332Y-111361009D01*
X178833332Y-111361009D02*
X178880951Y-111456247D01*
X175642857Y-112789580D02*
X175690476Y-112837200D01*
X175690476Y-112837200D02*
X175833333Y-112884819D01*
X175833333Y-112884819D02*
X175928571Y-112884819D01*
X175928571Y-112884819D02*
X176071428Y-112837200D01*
X176071428Y-112837200D02*
X176166666Y-112741961D01*
X176166666Y-112741961D02*
X176214285Y-112646723D01*
X176214285Y-112646723D02*
X176261904Y-112456247D01*
X176261904Y-112456247D02*
X176261904Y-112313390D01*
X176261904Y-112313390D02*
X176214285Y-112122914D01*
X176214285Y-112122914D02*
X176166666Y-112027676D01*
X176166666Y-112027676D02*
X176071428Y-111932438D01*
X176071428Y-111932438D02*
X175928571Y-111884819D01*
X175928571Y-111884819D02*
X175833333Y-111884819D01*
X175833333Y-111884819D02*
X175690476Y-111932438D01*
X175690476Y-111932438D02*
X175642857Y-111980057D01*
X174690476Y-112884819D02*
X175261904Y-112884819D01*
X174976190Y-112884819D02*
X174976190Y-111884819D01*
X174976190Y-111884819D02*
X175071428Y-112027676D01*
X175071428Y-112027676D02*
X175166666Y-112122914D01*
X175166666Y-112122914D02*
X175261904Y-112170533D01*
X173833333Y-111884819D02*
X174023809Y-111884819D01*
X174023809Y-111884819D02*
X174119047Y-111932438D01*
X174119047Y-111932438D02*
X174166666Y-111980057D01*
X174166666Y-111980057D02*
X174261904Y-112122914D01*
X174261904Y-112122914D02*
X174309523Y-112313390D01*
X174309523Y-112313390D02*
X174309523Y-112694342D01*
X174309523Y-112694342D02*
X174261904Y-112789580D01*
X174261904Y-112789580D02*
X174214285Y-112837200D01*
X174214285Y-112837200D02*
X174119047Y-112884819D01*
X174119047Y-112884819D02*
X173928571Y-112884819D01*
X173928571Y-112884819D02*
X173833333Y-112837200D01*
X173833333Y-112837200D02*
X173785714Y-112789580D01*
X173785714Y-112789580D02*
X173738095Y-112694342D01*
X173738095Y-112694342D02*
X173738095Y-112456247D01*
X173738095Y-112456247D02*
X173785714Y-112361009D01*
X173785714Y-112361009D02*
X173833333Y-112313390D01*
X173833333Y-112313390D02*
X173928571Y-112265771D01*
X173928571Y-112265771D02*
X174119047Y-112265771D01*
X174119047Y-112265771D02*
X174214285Y-112313390D01*
X174214285Y-112313390D02*
X174261904Y-112361009D01*
X174261904Y-112361009D02*
X174309523Y-112456247D01*
X165916666Y-110104819D02*
X166392856Y-110104819D01*
X166392856Y-110104819D02*
X166392856Y-109104819D01*
X165059523Y-110104819D02*
X165630951Y-110104819D01*
X165345237Y-110104819D02*
X165345237Y-109104819D01*
X165345237Y-109104819D02*
X165440475Y-109247676D01*
X165440475Y-109247676D02*
X165535713Y-109342914D01*
X165535713Y-109342914D02*
X165630951Y-109390533D01*
X189289580Y-112132142D02*
X189337200Y-112084523D01*
X189337200Y-112084523D02*
X189384819Y-111941666D01*
X189384819Y-111941666D02*
X189384819Y-111846428D01*
X189384819Y-111846428D02*
X189337200Y-111703571D01*
X189337200Y-111703571D02*
X189241961Y-111608333D01*
X189241961Y-111608333D02*
X189146723Y-111560714D01*
X189146723Y-111560714D02*
X188956247Y-111513095D01*
X188956247Y-111513095D02*
X188813390Y-111513095D01*
X188813390Y-111513095D02*
X188622914Y-111560714D01*
X188622914Y-111560714D02*
X188527676Y-111608333D01*
X188527676Y-111608333D02*
X188432438Y-111703571D01*
X188432438Y-111703571D02*
X188384819Y-111846428D01*
X188384819Y-111846428D02*
X188384819Y-111941666D01*
X188384819Y-111941666D02*
X188432438Y-112084523D01*
X188432438Y-112084523D02*
X188480057Y-112132142D01*
X189384819Y-113084523D02*
X189384819Y-112513095D01*
X189384819Y-112798809D02*
X188384819Y-112798809D01*
X188384819Y-112798809D02*
X188527676Y-112703571D01*
X188527676Y-112703571D02*
X188622914Y-112608333D01*
X188622914Y-112608333D02*
X188670533Y-112513095D01*
X188813390Y-113655952D02*
X188765771Y-113560714D01*
X188765771Y-113560714D02*
X188718152Y-113513095D01*
X188718152Y-113513095D02*
X188622914Y-113465476D01*
X188622914Y-113465476D02*
X188575295Y-113465476D01*
X188575295Y-113465476D02*
X188480057Y-113513095D01*
X188480057Y-113513095D02*
X188432438Y-113560714D01*
X188432438Y-113560714D02*
X188384819Y-113655952D01*
X188384819Y-113655952D02*
X188384819Y-113846428D01*
X188384819Y-113846428D02*
X188432438Y-113941666D01*
X188432438Y-113941666D02*
X188480057Y-113989285D01*
X188480057Y-113989285D02*
X188575295Y-114036904D01*
X188575295Y-114036904D02*
X188622914Y-114036904D01*
X188622914Y-114036904D02*
X188718152Y-113989285D01*
X188718152Y-113989285D02*
X188765771Y-113941666D01*
X188765771Y-113941666D02*
X188813390Y-113846428D01*
X188813390Y-113846428D02*
X188813390Y-113655952D01*
X188813390Y-113655952D02*
X188861009Y-113560714D01*
X188861009Y-113560714D02*
X188908628Y-113513095D01*
X188908628Y-113513095D02*
X189003866Y-113465476D01*
X189003866Y-113465476D02*
X189194342Y-113465476D01*
X189194342Y-113465476D02*
X189289580Y-113513095D01*
X189289580Y-113513095D02*
X189337200Y-113560714D01*
X189337200Y-113560714D02*
X189384819Y-113655952D01*
X189384819Y-113655952D02*
X189384819Y-113846428D01*
X189384819Y-113846428D02*
X189337200Y-113941666D01*
X189337200Y-113941666D02*
X189289580Y-113989285D01*
X189289580Y-113989285D02*
X189194342Y-114036904D01*
X189194342Y-114036904D02*
X189003866Y-114036904D01*
X189003866Y-114036904D02*
X188908628Y-113989285D01*
X188908628Y-113989285D02*
X188861009Y-113941666D01*
X188861009Y-113941666D02*
X188813390Y-113846428D01*
X197789580Y-114597142D02*
X197837200Y-114549523D01*
X197837200Y-114549523D02*
X197884819Y-114406666D01*
X197884819Y-114406666D02*
X197884819Y-114311428D01*
X197884819Y-114311428D02*
X197837200Y-114168571D01*
X197837200Y-114168571D02*
X197741961Y-114073333D01*
X197741961Y-114073333D02*
X197646723Y-114025714D01*
X197646723Y-114025714D02*
X197456247Y-113978095D01*
X197456247Y-113978095D02*
X197313390Y-113978095D01*
X197313390Y-113978095D02*
X197122914Y-114025714D01*
X197122914Y-114025714D02*
X197027676Y-114073333D01*
X197027676Y-114073333D02*
X196932438Y-114168571D01*
X196932438Y-114168571D02*
X196884819Y-114311428D01*
X196884819Y-114311428D02*
X196884819Y-114406666D01*
X196884819Y-114406666D02*
X196932438Y-114549523D01*
X196932438Y-114549523D02*
X196980057Y-114597142D01*
X197884819Y-115549523D02*
X197884819Y-114978095D01*
X197884819Y-115263809D02*
X196884819Y-115263809D01*
X196884819Y-115263809D02*
X197027676Y-115168571D01*
X197027676Y-115168571D02*
X197122914Y-115073333D01*
X197122914Y-115073333D02*
X197170533Y-114978095D01*
X196884819Y-116454285D02*
X196884819Y-115978095D01*
X196884819Y-115978095D02*
X197361009Y-115930476D01*
X197361009Y-115930476D02*
X197313390Y-115978095D01*
X197313390Y-115978095D02*
X197265771Y-116073333D01*
X197265771Y-116073333D02*
X197265771Y-116311428D01*
X197265771Y-116311428D02*
X197313390Y-116406666D01*
X197313390Y-116406666D02*
X197361009Y-116454285D01*
X197361009Y-116454285D02*
X197456247Y-116501904D01*
X197456247Y-116501904D02*
X197694342Y-116501904D01*
X197694342Y-116501904D02*
X197789580Y-116454285D01*
X197789580Y-116454285D02*
X197837200Y-116406666D01*
X197837200Y-116406666D02*
X197884819Y-116311428D01*
X197884819Y-116311428D02*
X197884819Y-116073333D01*
X197884819Y-116073333D02*
X197837200Y-115978095D01*
X197837200Y-115978095D02*
X197789580Y-115930476D01*
D11*
X166540000Y-114385000D02*
X166540000Y-111115000D01*
X168960000Y-114385000D02*
X166540000Y-114385000D01*
X166540000Y-111115000D02*
X168960000Y-111115000D01*
X168960000Y-111115000D02*
X168960000Y-114385000D01*
D12*
X160997400Y-103548399D02*
G75*
G03*
X160997400Y-103548399I-381000J0D01*
G01*
D13*
X179140580Y-112260000D02*
X178859420Y-112260000D01*
X179140580Y-111240000D02*
X178859420Y-111240000D01*
X171613748Y-112790000D02*
X174386252Y-112790000D01*
X171613748Y-116210000D02*
X174386252Y-116210000D01*
X192353080Y-112260000D02*
X192071920Y-112260000D01*
X192353080Y-111240000D02*
X192071920Y-111240000D01*
X199386252Y-112450000D02*
X196613748Y-112450000D01*
X199386252Y-109030000D02*
X196613748Y-109030000D01*
X182740000Y-112915580D02*
X182740000Y-112634420D01*
X183760000Y-112915580D02*
X183760000Y-112634420D01*
X192049721Y-109490000D02*
X192375279Y-109490000D01*
X192049721Y-110510000D02*
X192375279Y-110510000D01*
X178837221Y-109490000D02*
X179162779Y-109490000D01*
X178837221Y-110510000D02*
X179162779Y-110510000D01*
X174859420Y-110490000D02*
X175140580Y-110490000D01*
X174859420Y-111510000D02*
X175140580Y-111510000D01*
X164363748Y-105290000D02*
X167136252Y-105290000D01*
X164363748Y-108710000D02*
X167136252Y-108710000D01*
X186990000Y-112915580D02*
X186990000Y-112634420D01*
X188010000Y-112915580D02*
X188010000Y-112634420D01*
X195490000Y-115380580D02*
X195490000Y-115099420D01*
X196510000Y-115380580D02*
X196510000Y-115099420D01*
M02*
