M48
INCH,TZ
T1C0.0315
T2C0.0394
T3C0.0768
T4C0.1181
%
G90
G05
T1
X61516Y-41831
X61516Y-43701
X61909Y-40059
X64075Y-41634
X66043Y-43307
X66634Y-45472
X67224Y-43898
X67238Y-41043
X79528Y-43598
X80315Y-43898
T2
X71437Y-40335
X71437Y-41909
X71437Y-43484
X71437Y-45059
X73012Y-40335
X73012Y-41909
X73012Y-43484
X73012Y-45059
X74587Y-40335
X74587Y-41909
X74587Y-43484
X74587Y-45059
T3
X70236Y-40453
X70236Y-41909
X70236Y-44980
X75787Y-40453
X75787Y-41909
X75787Y-44980
T4
X62205Y-45177
X65945Y-40354
X79724Y-40354
X79724Y-45177
T0
M30
