G04 #@! TF.GenerationSoftware,KiCad,Pcbnew,7.0.9*
G04 #@! TF.CreationDate,2023-11-27T12:39:35-05:00*
G04 #@! TF.ProjectId,GE_3T_Wantcom_motherboard,47455f33-545f-4576-916e-74636f6d5f6d,0*
G04 #@! TF.SameCoordinates,Original*
G04 #@! TF.FileFunction,Copper,L1,Top*
G04 #@! TF.FilePolarity,Positive*
%FSLAX46Y46*%
G04 Gerber Fmt 4.6, Leading zero omitted, Abs format (unit mm)*
G04 Created by KiCad (PCBNEW 7.0.9) date 2023-11-27 12:39:35*
%MOMM*%
%LPD*%
G01*
G04 APERTURE LIST*
G04 Aperture macros list*
%AMRoundRect*
0 Rectangle with rounded corners*
0 $1 Rounding radius*
0 $2 $3 $4 $5 $6 $7 $8 $9 X,Y pos of 4 corners*
0 Add a 4 corners polygon primitive as box body*
4,1,4,$2,$3,$4,$5,$6,$7,$8,$9,$2,$3,0*
0 Add four circle primitives for the rounded corners*
1,1,$1+$1,$2,$3*
1,1,$1+$1,$4,$5*
1,1,$1+$1,$6,$7*
1,1,$1+$1,$8,$9*
0 Add four rect primitives between the rounded corners*
20,1,$1+$1,$2,$3,$4,$5,0*
20,1,$1+$1,$4,$5,$6,$7,0*
20,1,$1+$1,$6,$7,$8,$9,0*
20,1,$1+$1,$8,$9,$2,$3,0*%
G04 Aperture macros list end*
G04 #@! TA.AperFunction,ComponentPad*
%ADD10C,3.500000*%
G04 #@! TD*
G04 #@! TA.AperFunction,ComponentPad*
%ADD11C,2.920000*%
G04 #@! TD*
G04 #@! TA.AperFunction,HeatsinkPad*
%ADD12R,1.500000X1.500000*%
G04 #@! TD*
G04 #@! TA.AperFunction,ComponentPad*
%ADD13R,1.500000X1.500000*%
G04 #@! TD*
G04 #@! TA.AperFunction,SMDPad,CuDef*
%ADD14RoundRect,0.218750X0.381250X-0.218750X0.381250X0.218750X-0.381250X0.218750X-0.381250X-0.218750X0*%
G04 #@! TD*
G04 #@! TA.AperFunction,SMDPad,CuDef*
%ADD15R,0.990600X3.251200*%
G04 #@! TD*
G04 #@! TA.AperFunction,SMDPad,CuDef*
%ADD16RoundRect,0.250000X0.312500X1.450000X-0.312500X1.450000X-0.312500X-1.450000X0.312500X-1.450000X0*%
G04 #@! TD*
G04 #@! TA.AperFunction,SMDPad,CuDef*
%ADD17R,3.251200X0.990600*%
G04 #@! TD*
G04 #@! TA.AperFunction,SMDPad,CuDef*
%ADD18R,2.360000X1.270000*%
G04 #@! TD*
G04 #@! TA.AperFunction,SMDPad,CuDef*
%ADD19R,0.838200X0.889000*%
G04 #@! TD*
G04 #@! TA.AperFunction,SMDPad,CuDef*
%ADD20R,0.889000X2.057400*%
G04 #@! TD*
G04 #@! TA.AperFunction,SMDPad,CuDef*
%ADD21RoundRect,0.225000X-0.250000X0.225000X-0.250000X-0.225000X0.250000X-0.225000X0.250000X0.225000X0*%
G04 #@! TD*
G04 #@! TA.AperFunction,ViaPad*
%ADD22C,1.500000*%
G04 #@! TD*
G04 #@! TA.AperFunction,Conductor*
%ADD23C,1.000000*%
G04 #@! TD*
G04 APERTURE END LIST*
D10*
X158000000Y-114750000D03*
X167500000Y-102500000D03*
X202500000Y-102500000D03*
X202500000Y-114750000D03*
D11*
X178400000Y-106450000D03*
X192500000Y-106450000D03*
X178400000Y-102750000D03*
X178400000Y-114250000D03*
D12*
X181450000Y-102450000D03*
D13*
X181450000Y-106450000D03*
X181450000Y-110450000D03*
X181450000Y-114450000D03*
D12*
X185450000Y-102450000D03*
D13*
X185450000Y-106450000D03*
X185450000Y-110450000D03*
X185450000Y-114450000D03*
D12*
X189450000Y-102450000D03*
D13*
X189450000Y-106450000D03*
X189450000Y-110450000D03*
X189450000Y-114450000D03*
D11*
X192500000Y-102750000D03*
X192500000Y-114250000D03*
D14*
X175000000Y-109125000D03*
X175000000Y-107000000D03*
D15*
X159511300Y-106250000D03*
X156488700Y-106250000D03*
D16*
X200117500Y-106500000D03*
X195842500Y-106500000D03*
D17*
X163000000Y-107488700D03*
X163000000Y-110511300D03*
D18*
X167750000Y-114145000D03*
X167750000Y-111355000D03*
D15*
X159511300Y-110500000D03*
X156488700Y-110500000D03*
D19*
X162750000Y-103548399D03*
D20*
X161250000Y-101999990D03*
X164250000Y-101999990D03*
D15*
X196488700Y-110740000D03*
X199511300Y-110740000D03*
X170988700Y-112000000D03*
X174011300Y-112000000D03*
D17*
X167750000Y-105738700D03*
X167750000Y-108761300D03*
D21*
X204250000Y-107475000D03*
X204250000Y-109025000D03*
D17*
X163000000Y-112488700D03*
X163000000Y-115511300D03*
D15*
X171000000Y-104250000D03*
X174022600Y-104250000D03*
D22*
X170784800Y-104250000D03*
X156250000Y-106250000D03*
X170750000Y-111500000D03*
X157250000Y-101750000D03*
X204000000Y-111500000D03*
X156250000Y-111000000D03*
X202000000Y-110740000D03*
X167750000Y-110000000D03*
X169250000Y-115500000D03*
X162750000Y-105750000D03*
D23*
X200117500Y-106500000D02*
X202500000Y-106500000D01*
X202500000Y-106500000D02*
X203000000Y-107000000D01*
X195750000Y-108500000D02*
X194480000Y-108500000D01*
X195842500Y-106500000D02*
X195842500Y-110647500D01*
X196488700Y-110740000D02*
X195750000Y-110740000D01*
X194480000Y-108500000D02*
X192470000Y-106490000D01*
X195842500Y-110647500D02*
X195750000Y-110740000D01*
X202000000Y-110740000D02*
X199511300Y-110740000D01*
X167750000Y-111355000D02*
X167750000Y-108761300D01*
X168000000Y-114395000D02*
X167750000Y-114145000D01*
X169238700Y-115511300D02*
X168000000Y-115511300D01*
X174011300Y-115488700D02*
X174011300Y-112000000D01*
X169250000Y-115500000D02*
X174000000Y-115500000D01*
X175000000Y-109125000D02*
X175000000Y-111011300D01*
X174000000Y-115500000D02*
X174011300Y-115488700D01*
X169250000Y-115500000D02*
X169238700Y-115511300D01*
X175000000Y-111011300D02*
X174011300Y-112000000D01*
X168000000Y-115511300D02*
X168000000Y-114395000D01*
X168000000Y-115511300D02*
X163000000Y-115511300D01*
X163000000Y-111000000D02*
X163000000Y-110511300D01*
X159511300Y-111000000D02*
X163000000Y-111000000D01*
X163000000Y-112488700D02*
X163000000Y-111000000D01*
X175510000Y-106490000D02*
X175000000Y-107000000D01*
X174011300Y-104250000D02*
X174011300Y-106011300D01*
X178370000Y-106490000D02*
X175510000Y-106490000D01*
X174011300Y-106011300D02*
X175000000Y-107000000D01*
X163000000Y-107488700D02*
X163000000Y-106000000D01*
X163000000Y-106000000D02*
X162750000Y-105750000D01*
X159761300Y-105750000D02*
X159511300Y-106000000D01*
X162750000Y-105750000D02*
X162750000Y-103548409D01*
X162750000Y-105750000D02*
X159761300Y-105750000D01*
G04 #@! TA.AperFunction,Conductor*
G36*
X204942539Y-105269685D02*
G01*
X204988294Y-105322489D01*
X204999500Y-105374000D01*
X204999500Y-106484098D01*
X204979815Y-106551137D01*
X204927011Y-106596892D01*
X204857853Y-106606836D01*
X204815108Y-106591342D01*
X204815032Y-106591507D01*
X204813183Y-106590645D01*
X204810405Y-106589638D01*
X204808488Y-106588455D01*
X204808481Y-106588452D01*
X204647606Y-106535144D01*
X204548322Y-106525000D01*
X204500000Y-106525000D01*
X204500000Y-107601000D01*
X204480315Y-107668039D01*
X204427511Y-107713794D01*
X204376000Y-107725000D01*
X203265591Y-107725000D01*
X203224997Y-107747166D01*
X203198639Y-107750000D01*
X202124000Y-107750000D01*
X202056961Y-107730315D01*
X202011206Y-107677511D01*
X202000000Y-107626000D01*
X202000000Y-107225000D01*
X203275000Y-107225000D01*
X204000000Y-107225000D01*
X204000000Y-106525000D01*
X203999999Y-106524999D01*
X203951693Y-106525000D01*
X203951675Y-106525001D01*
X203852392Y-106535144D01*
X203691518Y-106588452D01*
X203691507Y-106588457D01*
X203547271Y-106677424D01*
X203547267Y-106677427D01*
X203427427Y-106797267D01*
X203427424Y-106797271D01*
X203338457Y-106941507D01*
X203338452Y-106941518D01*
X203285144Y-107102393D01*
X203275000Y-107201677D01*
X203275000Y-107225000D01*
X202000000Y-107225000D01*
X202000000Y-105374000D01*
X202019685Y-105306961D01*
X202072489Y-105261206D01*
X202124000Y-105250000D01*
X204875500Y-105250000D01*
X204942539Y-105269685D01*
G37*
G04 #@! TD.AperFunction*
G04 #@! TA.AperFunction,Conductor*
G36*
X204942539Y-100020185D02*
G01*
X204988294Y-100072989D01*
X204999500Y-100124500D01*
X204999500Y-104620500D01*
X204979815Y-104687539D01*
X204927011Y-104733294D01*
X204875500Y-104744500D01*
X202124000Y-104744500D01*
X202123991Y-104744500D01*
X202123990Y-104744501D01*
X202016549Y-104756052D01*
X202016537Y-104756054D01*
X201965027Y-104767260D01*
X201862502Y-104801383D01*
X201862496Y-104801386D01*
X201741462Y-104879171D01*
X201741451Y-104879179D01*
X201688659Y-104924923D01*
X201594433Y-105033664D01*
X201594430Y-105033668D01*
X201534664Y-105164534D01*
X201514978Y-105231575D01*
X201514976Y-105231580D01*
X201494500Y-105374001D01*
X201494500Y-105375500D01*
X201494358Y-105375982D01*
X201494184Y-105378420D01*
X201493653Y-105378382D01*
X201474815Y-105442539D01*
X201422011Y-105488294D01*
X201370500Y-105499500D01*
X201304499Y-105499500D01*
X201237460Y-105479815D01*
X201191705Y-105427011D01*
X201180499Y-105375500D01*
X201180499Y-104999998D01*
X201180498Y-104999981D01*
X201169999Y-104897203D01*
X201169998Y-104897200D01*
X201152513Y-104844433D01*
X201114814Y-104730666D01*
X201022712Y-104581344D01*
X200898656Y-104457288D01*
X200805888Y-104400069D01*
X200749336Y-104365187D01*
X200749331Y-104365185D01*
X200747862Y-104364698D01*
X200582797Y-104310001D01*
X200582795Y-104310000D01*
X200480010Y-104299500D01*
X199754998Y-104299500D01*
X199754980Y-104299501D01*
X199652203Y-104310000D01*
X199652200Y-104310001D01*
X199485668Y-104365185D01*
X199485663Y-104365187D01*
X199336342Y-104457289D01*
X199212289Y-104581342D01*
X199120187Y-104730663D01*
X199120185Y-104730668D01*
X199111773Y-104756054D01*
X199065001Y-104897203D01*
X199065001Y-104897204D01*
X199065000Y-104897204D01*
X199054500Y-104999983D01*
X199054500Y-108000001D01*
X199054501Y-108000018D01*
X199065000Y-108102796D01*
X199065001Y-108102799D01*
X199120185Y-108269331D01*
X199120187Y-108269336D01*
X199147011Y-108312824D01*
X199210346Y-108415508D01*
X199216080Y-108424803D01*
X199234520Y-108492196D01*
X199213597Y-108558859D01*
X199159955Y-108603629D01*
X199110542Y-108613900D01*
X198968130Y-108613900D01*
X198968123Y-108613901D01*
X198908516Y-108620308D01*
X198773671Y-108670602D01*
X198773664Y-108670606D01*
X198658455Y-108756852D01*
X198658452Y-108756855D01*
X198572206Y-108872064D01*
X198572202Y-108872071D01*
X198521910Y-109006913D01*
X198521909Y-109006917D01*
X198516797Y-109054458D01*
X198490061Y-109119006D01*
X198432668Y-109158854D01*
X198393509Y-109165200D01*
X197606491Y-109165200D01*
X197539452Y-109145515D01*
X197493697Y-109092711D01*
X197483201Y-109054453D01*
X197478091Y-109006916D01*
X197427797Y-108872071D01*
X197427793Y-108872064D01*
X197341547Y-108756855D01*
X197341544Y-108756852D01*
X197226335Y-108670606D01*
X197226328Y-108670602D01*
X197091482Y-108620308D01*
X197091483Y-108620308D01*
X197031883Y-108613901D01*
X197031881Y-108613900D01*
X197031873Y-108613900D01*
X197031865Y-108613900D01*
X196967000Y-108613900D01*
X196899961Y-108594215D01*
X196854206Y-108541411D01*
X196843000Y-108489900D01*
X196843000Y-108279728D01*
X196849294Y-108240724D01*
X196894999Y-108102797D01*
X196905500Y-108000009D01*
X196905499Y-104999992D01*
X196894999Y-104897203D01*
X196839814Y-104730666D01*
X196747712Y-104581344D01*
X196623656Y-104457288D01*
X196530888Y-104400069D01*
X196474336Y-104365187D01*
X196474331Y-104365185D01*
X196472862Y-104364698D01*
X196307797Y-104310001D01*
X196307795Y-104310000D01*
X196205010Y-104299500D01*
X195479998Y-104299500D01*
X195479980Y-104299501D01*
X195377203Y-104310000D01*
X195377200Y-104310001D01*
X195210668Y-104365185D01*
X195210663Y-104365187D01*
X195061342Y-104457289D01*
X194937289Y-104581342D01*
X194845187Y-104730663D01*
X194845185Y-104730668D01*
X194836773Y-104756054D01*
X194790001Y-104897203D01*
X194790001Y-104897204D01*
X194790000Y-104897204D01*
X194779500Y-104999983D01*
X194779500Y-107085218D01*
X194759815Y-107152257D01*
X194707011Y-107198012D01*
X194637853Y-107207956D01*
X194574297Y-107178931D01*
X194567819Y-107172899D01*
X194436051Y-107041131D01*
X194402566Y-106979808D01*
X194402566Y-106927091D01*
X194445501Y-106729726D01*
X194445501Y-106729725D01*
X194445502Y-106729721D01*
X194465508Y-106450000D01*
X194465151Y-106445014D01*
X194453918Y-106287952D01*
X194445502Y-106170279D01*
X194444964Y-106167808D01*
X194415696Y-106033265D01*
X194385891Y-105896252D01*
X194287889Y-105633498D01*
X194271497Y-105603479D01*
X194153494Y-105387371D01*
X194153489Y-105387363D01*
X193985438Y-105162873D01*
X193985422Y-105162855D01*
X193787144Y-104964577D01*
X193787126Y-104964561D01*
X193562636Y-104796510D01*
X193562628Y-104796505D01*
X193401544Y-104708546D01*
X193352139Y-104659140D01*
X193337287Y-104590868D01*
X193361704Y-104525403D01*
X193401545Y-104490881D01*
X193562360Y-104403070D01*
X193697988Y-104301540D01*
X192989738Y-103593291D01*
X193059859Y-103554371D01*
X193210317Y-103425207D01*
X193331695Y-103268400D01*
X193344943Y-103241391D01*
X194051540Y-103947988D01*
X194153071Y-103812358D01*
X194153072Y-103812357D01*
X194287430Y-103566298D01*
X194287432Y-103566294D01*
X194385411Y-103303599D01*
X194445004Y-103029658D01*
X194445005Y-103029651D01*
X194465007Y-102750001D01*
X194465007Y-102749998D01*
X194445005Y-102470348D01*
X194445004Y-102470341D01*
X194385411Y-102196400D01*
X194287432Y-101933705D01*
X194287430Y-101933701D01*
X194153072Y-101687642D01*
X194153067Y-101687634D01*
X194051541Y-101552011D01*
X194051540Y-101552010D01*
X193343502Y-102260048D01*
X193274982Y-102150119D01*
X193138363Y-102006396D01*
X192991954Y-101904492D01*
X193697988Y-101198458D01*
X193697988Y-101198457D01*
X193562365Y-101096932D01*
X193562357Y-101096927D01*
X193316298Y-100962569D01*
X193316294Y-100962567D01*
X193053599Y-100864588D01*
X192779658Y-100804995D01*
X192779651Y-100804994D01*
X192500001Y-100784993D01*
X192499999Y-100784993D01*
X192220348Y-100804994D01*
X192220341Y-100804995D01*
X191946400Y-100864588D01*
X191683705Y-100962567D01*
X191683701Y-100962569D01*
X191437642Y-101096927D01*
X191302011Y-101198458D01*
X192010261Y-101906708D01*
X191940141Y-101945629D01*
X191789683Y-102074793D01*
X191668305Y-102231600D01*
X191655056Y-102258609D01*
X190948458Y-101552011D01*
X190846927Y-101687642D01*
X190712569Y-101933701D01*
X190712567Y-101933705D01*
X190614588Y-102196400D01*
X190554995Y-102470341D01*
X190554994Y-102470348D01*
X190534993Y-102749998D01*
X190534993Y-102750001D01*
X190554994Y-103029651D01*
X190554995Y-103029658D01*
X190614588Y-103303599D01*
X190712567Y-103566294D01*
X190712569Y-103566298D01*
X190846927Y-103812357D01*
X190846932Y-103812365D01*
X190948457Y-103947988D01*
X190948458Y-103947988D01*
X191656496Y-103239949D01*
X191725018Y-103349881D01*
X191861637Y-103493604D01*
X192008044Y-103595507D01*
X191302010Y-104301540D01*
X191302011Y-104301541D01*
X191437634Y-104403067D01*
X191437641Y-104403072D01*
X191598455Y-104490882D01*
X191647860Y-104540287D01*
X191662712Y-104608560D01*
X191638295Y-104674024D01*
X191598456Y-104708546D01*
X191437365Y-104796509D01*
X191437363Y-104796510D01*
X191212873Y-104964561D01*
X191212855Y-104964577D01*
X191014577Y-105162855D01*
X191014561Y-105162873D01*
X190846510Y-105387363D01*
X190846505Y-105387371D01*
X190712113Y-105633492D01*
X190712111Y-105633496D01*
X190614107Y-105896258D01*
X190554498Y-106170273D01*
X190534492Y-106449998D01*
X190534492Y-106450001D01*
X190554498Y-106729726D01*
X190614107Y-107003741D01*
X190614109Y-107003748D01*
X190644496Y-107085218D01*
X190712111Y-107266503D01*
X190712113Y-107266507D01*
X190846505Y-107512628D01*
X190846510Y-107512636D01*
X191014561Y-107737126D01*
X191014577Y-107737144D01*
X191212855Y-107935422D01*
X191212873Y-107935438D01*
X191437363Y-108103489D01*
X191437371Y-108103494D01*
X191683492Y-108237886D01*
X191683496Y-108237888D01*
X191683498Y-108237889D01*
X191946252Y-108335891D01*
X192066287Y-108362003D01*
X192220273Y-108395501D01*
X192220275Y-108395501D01*
X192220279Y-108395502D01*
X192468855Y-108413280D01*
X192499999Y-108415508D01*
X192500000Y-108415508D01*
X192500001Y-108415508D01*
X192562135Y-108411064D01*
X192779721Y-108395502D01*
X192862107Y-108377579D01*
X192931794Y-108382563D01*
X192976143Y-108411064D01*
X193763566Y-109198487D01*
X193824941Y-109263053D01*
X193824944Y-109263055D01*
X193824947Y-109263058D01*
X193855877Y-109284584D01*
X193875295Y-109298100D01*
X193879050Y-109300932D01*
X193883405Y-109304483D01*
X193926593Y-109339698D01*
X193957045Y-109355604D01*
X193963756Y-109359671D01*
X193991951Y-109379295D01*
X194048332Y-109403490D01*
X194052567Y-109405501D01*
X194106951Y-109433909D01*
X194139973Y-109443356D01*
X194147365Y-109445989D01*
X194178940Y-109459539D01*
X194178941Y-109459540D01*
X194192054Y-109462234D01*
X194239055Y-109471892D01*
X194243595Y-109473006D01*
X194302582Y-109489886D01*
X194336841Y-109492494D01*
X194344609Y-109493585D01*
X194378255Y-109500500D01*
X194378259Y-109500500D01*
X194439601Y-109500500D01*
X194444308Y-109500678D01*
X194480651Y-109503446D01*
X194505475Y-109505337D01*
X194505475Y-109505336D01*
X194505476Y-109505337D01*
X194539559Y-109500996D01*
X194547389Y-109500500D01*
X194718000Y-109500500D01*
X194785039Y-109520185D01*
X194830794Y-109572989D01*
X194842000Y-109624500D01*
X194842000Y-110286915D01*
X194827909Y-110344325D01*
X194816092Y-110366947D01*
X194816089Y-110366953D01*
X194815605Y-110368648D01*
X194807720Y-110389138D01*
X194806940Y-110390726D01*
X194784617Y-110476945D01*
X194771719Y-110522023D01*
X194760112Y-110562586D01*
X194760112Y-110562587D01*
X194759977Y-110564358D01*
X194756381Y-110585996D01*
X194755937Y-110587708D01*
X194751426Y-110676654D01*
X194744663Y-110765478D01*
X194744663Y-110765480D01*
X194744887Y-110767241D01*
X194745721Y-110789153D01*
X194745631Y-110790930D01*
X194745631Y-110790940D01*
X194759115Y-110878957D01*
X194770368Y-110967321D01*
X194770370Y-110967329D01*
X194770942Y-110969001D01*
X194776177Y-110990330D01*
X194776444Y-110992071D01*
X194807369Y-111075572D01*
X194836184Y-111159872D01*
X194836185Y-111159874D01*
X194836184Y-111159874D01*
X194837083Y-111161400D01*
X194846500Y-111181230D01*
X194847114Y-111182887D01*
X194894236Y-111258488D01*
X194939410Y-111335227D01*
X194940591Y-111336534D01*
X194953811Y-111354067D01*
X194954748Y-111355571D01*
X195008691Y-111412318D01*
X195016133Y-111420147D01*
X195075819Y-111486211D01*
X195075826Y-111486217D01*
X195077241Y-111487256D01*
X195093724Y-111501773D01*
X195094941Y-111503053D01*
X195168058Y-111553944D01*
X195239833Y-111606649D01*
X195241431Y-111607383D01*
X195260506Y-111618289D01*
X195261951Y-111619295D01*
X195343818Y-111654427D01*
X195420671Y-111689739D01*
X195473370Y-111735615D01*
X195492900Y-111802414D01*
X195492900Y-112413470D01*
X195492901Y-112413476D01*
X195499308Y-112473083D01*
X195549602Y-112607928D01*
X195549606Y-112607935D01*
X195635852Y-112723144D01*
X195635855Y-112723147D01*
X195751064Y-112809393D01*
X195751071Y-112809397D01*
X195885917Y-112859691D01*
X195885916Y-112859691D01*
X195892844Y-112860435D01*
X195945527Y-112866100D01*
X197031872Y-112866099D01*
X197091483Y-112859691D01*
X197226331Y-112809396D01*
X197341546Y-112723146D01*
X197427796Y-112607931D01*
X197478091Y-112473083D01*
X197483202Y-112425541D01*
X197509939Y-112360994D01*
X197567332Y-112321146D01*
X197606491Y-112314800D01*
X198393509Y-112314800D01*
X198460548Y-112334485D01*
X198506303Y-112387289D01*
X198516799Y-112425547D01*
X198521908Y-112473083D01*
X198572202Y-112607928D01*
X198572206Y-112607935D01*
X198658452Y-112723144D01*
X198658455Y-112723147D01*
X198773664Y-112809393D01*
X198773671Y-112809397D01*
X198908517Y-112859691D01*
X198908516Y-112859691D01*
X198915444Y-112860435D01*
X198968127Y-112866100D01*
X200054472Y-112866099D01*
X200114083Y-112859691D01*
X200248931Y-112809396D01*
X200364146Y-112723146D01*
X200450396Y-112607931D01*
X200500691Y-112473083D01*
X200507100Y-112413473D01*
X200507100Y-111864500D01*
X200526785Y-111797461D01*
X200579589Y-111751706D01*
X200631100Y-111740500D01*
X201209583Y-111740500D01*
X201276622Y-111760185D01*
X201280706Y-111762925D01*
X201372356Y-111827099D01*
X201372358Y-111827100D01*
X201372361Y-111827102D01*
X201570670Y-111919575D01*
X201782023Y-111976207D01*
X201964926Y-111992208D01*
X201999998Y-111995277D01*
X202000000Y-111995277D01*
X202000002Y-111995277D01*
X202028254Y-111992805D01*
X202217977Y-111976207D01*
X202429330Y-111919575D01*
X202627639Y-111827102D01*
X202806877Y-111701598D01*
X202961598Y-111546877D01*
X203087102Y-111367639D01*
X203179575Y-111169330D01*
X203236207Y-110957977D01*
X203255277Y-110740000D01*
X203236207Y-110522023D01*
X203194656Y-110366953D01*
X203179577Y-110310677D01*
X203179576Y-110310676D01*
X203179575Y-110310670D01*
X203087102Y-110112362D01*
X203087100Y-110112359D01*
X203087099Y-110112357D01*
X202961599Y-109933124D01*
X202891169Y-109862694D01*
X202806877Y-109778402D01*
X202666232Y-109679921D01*
X202627638Y-109652897D01*
X202528484Y-109606661D01*
X202429330Y-109560425D01*
X202429326Y-109560424D01*
X202429322Y-109560422D01*
X202217977Y-109503793D01*
X202000002Y-109484723D01*
X201999998Y-109484723D01*
X201898704Y-109493585D01*
X201782023Y-109503793D01*
X201782020Y-109503793D01*
X201570677Y-109560422D01*
X201570668Y-109560426D01*
X201372361Y-109652898D01*
X201372357Y-109652900D01*
X201280707Y-109717075D01*
X201214501Y-109739402D01*
X201209584Y-109739500D01*
X200631099Y-109739500D01*
X200564060Y-109719815D01*
X200518305Y-109667011D01*
X200507099Y-109615500D01*
X200507099Y-109275000D01*
X203275001Y-109275000D01*
X203275001Y-109298322D01*
X203285144Y-109397607D01*
X203338452Y-109558481D01*
X203338457Y-109558492D01*
X203427424Y-109702728D01*
X203427427Y-109702732D01*
X203547267Y-109822572D01*
X203547271Y-109822575D01*
X203691507Y-109911542D01*
X203691518Y-109911547D01*
X203852393Y-109964855D01*
X203951683Y-109974999D01*
X203999999Y-109974998D01*
X204000000Y-109974998D01*
X204000000Y-109275000D01*
X203275001Y-109275000D01*
X200507099Y-109275000D01*
X200507099Y-109066529D01*
X200507098Y-109066523D01*
X200500691Y-109006916D01*
X200447297Y-108863759D01*
X200449760Y-108862840D01*
X200437825Y-108807969D01*
X200462244Y-108742505D01*
X200518178Y-108700635D01*
X200548905Y-108693461D01*
X200582797Y-108689999D01*
X200749334Y-108634814D01*
X200898656Y-108542712D01*
X201022712Y-108418656D01*
X201114814Y-108269334D01*
X201169999Y-108102797D01*
X201180500Y-108000009D01*
X201180500Y-107624500D01*
X201200185Y-107557461D01*
X201252989Y-107511706D01*
X201304500Y-107500500D01*
X201370500Y-107500500D01*
X201437539Y-107520185D01*
X201483294Y-107572989D01*
X201494105Y-107622685D01*
X201494322Y-107622674D01*
X201494393Y-107624011D01*
X201494500Y-107624500D01*
X201494500Y-107626000D01*
X201494501Y-107626009D01*
X201506052Y-107733450D01*
X201506054Y-107733462D01*
X201517260Y-107784972D01*
X201551383Y-107887497D01*
X201551386Y-107887503D01*
X201629171Y-108008537D01*
X201629179Y-108008548D01*
X201674923Y-108061340D01*
X201674926Y-108061343D01*
X201674930Y-108061347D01*
X201783664Y-108155567D01*
X201783667Y-108155568D01*
X201783668Y-108155569D01*
X201874527Y-108197064D01*
X201914541Y-108215338D01*
X201959357Y-108228497D01*
X201981575Y-108235022D01*
X201981580Y-108235023D01*
X201981584Y-108235024D01*
X202124000Y-108255500D01*
X202124003Y-108255500D01*
X203212174Y-108255500D01*
X203212178Y-108255500D01*
X203239217Y-108254051D01*
X203239224Y-108254050D01*
X203239226Y-108254050D01*
X203250682Y-108252818D01*
X203319443Y-108265218D01*
X203370584Y-108312824D01*
X203387868Y-108380522D01*
X203369486Y-108441202D01*
X203338457Y-108491509D01*
X203338452Y-108491518D01*
X203285144Y-108652393D01*
X203275000Y-108751677D01*
X203275000Y-108775000D01*
X204376000Y-108775000D01*
X204443039Y-108794685D01*
X204488794Y-108847489D01*
X204500000Y-108899000D01*
X204500000Y-109974999D01*
X204548308Y-109974999D01*
X204548322Y-109974998D01*
X204647607Y-109964855D01*
X204808481Y-109911547D01*
X204808482Y-109911546D01*
X204810395Y-109910367D01*
X204811891Y-109909957D01*
X204815032Y-109908493D01*
X204815282Y-109909029D01*
X204877786Y-109891922D01*
X204944451Y-109912839D01*
X204989225Y-109966478D01*
X204999500Y-110015901D01*
X204999500Y-117125500D01*
X204979815Y-117192539D01*
X204927011Y-117238294D01*
X204875500Y-117249500D01*
X155374500Y-117249500D01*
X155307461Y-117229815D01*
X155261706Y-117177011D01*
X155250500Y-117125500D01*
X155250500Y-112227511D01*
X155270185Y-112160472D01*
X155322989Y-112114717D01*
X155392147Y-112104773D01*
X155455703Y-112133798D01*
X155493477Y-112192576D01*
X155497789Y-112214255D01*
X155499801Y-112232972D01*
X155499803Y-112232979D01*
X155550045Y-112367686D01*
X155550049Y-112367693D01*
X155636209Y-112482787D01*
X155636212Y-112482790D01*
X155751306Y-112568950D01*
X155751313Y-112568954D01*
X155886020Y-112619196D01*
X155886027Y-112619198D01*
X155945555Y-112625599D01*
X155945572Y-112625600D01*
X156238700Y-112625600D01*
X156738700Y-112625600D01*
X157031828Y-112625600D01*
X157031844Y-112625599D01*
X157091372Y-112619198D01*
X157091379Y-112619196D01*
X157226086Y-112568954D01*
X157226093Y-112568950D01*
X157341187Y-112482790D01*
X157341190Y-112482787D01*
X157427350Y-112367693D01*
X157427354Y-112367686D01*
X157477596Y-112232979D01*
X157477598Y-112232972D01*
X157482698Y-112185544D01*
X157509436Y-112120993D01*
X157566829Y-112081145D01*
X157605987Y-112074800D01*
X158393509Y-112074800D01*
X158460548Y-112094485D01*
X158506303Y-112147289D01*
X158516799Y-112185547D01*
X158521908Y-112233083D01*
X158572202Y-112367928D01*
X158572206Y-112367935D01*
X158658452Y-112483144D01*
X158658455Y-112483147D01*
X158773664Y-112569393D01*
X158773671Y-112569397D01*
X158908517Y-112619691D01*
X158908516Y-112619691D01*
X158915444Y-112620435D01*
X158968127Y-112626100D01*
X160054472Y-112626099D01*
X160114083Y-112619691D01*
X160248931Y-112569396D01*
X160364146Y-112483146D01*
X160450396Y-112367931D01*
X160500691Y-112233083D01*
X160507100Y-112173473D01*
X160507100Y-112124500D01*
X160526785Y-112057461D01*
X160579589Y-112011706D01*
X160631100Y-112000500D01*
X160749900Y-112000500D01*
X160816939Y-112020185D01*
X160862694Y-112072989D01*
X160873900Y-112124500D01*
X160873900Y-113031870D01*
X160873901Y-113031876D01*
X160880308Y-113091483D01*
X160930602Y-113226328D01*
X160930606Y-113226335D01*
X161016852Y-113341544D01*
X161016855Y-113341547D01*
X161132064Y-113427793D01*
X161132071Y-113427797D01*
X161177018Y-113444561D01*
X161266917Y-113478091D01*
X161314458Y-113483202D01*
X161379006Y-113509939D01*
X161418854Y-113567332D01*
X161425200Y-113606491D01*
X161425200Y-114393508D01*
X161405515Y-114460547D01*
X161352711Y-114506302D01*
X161314455Y-114516797D01*
X161266920Y-114521907D01*
X161132071Y-114572202D01*
X161132064Y-114572206D01*
X161016855Y-114658452D01*
X161016852Y-114658455D01*
X160930606Y-114773664D01*
X160930602Y-114773671D01*
X160880308Y-114908517D01*
X160873901Y-114968116D01*
X160873900Y-114968135D01*
X160873900Y-116054470D01*
X160873901Y-116054476D01*
X160880308Y-116114083D01*
X160930602Y-116248928D01*
X160930606Y-116248935D01*
X161016852Y-116364144D01*
X161016855Y-116364147D01*
X161132064Y-116450393D01*
X161132071Y-116450397D01*
X161266917Y-116500691D01*
X161266916Y-116500691D01*
X161273844Y-116501435D01*
X161326527Y-116507100D01*
X162862777Y-116507099D01*
X162887739Y-116509638D01*
X162898259Y-116511800D01*
X167898259Y-116511800D01*
X167973071Y-116511800D01*
X167976211Y-116511880D01*
X168002842Y-116513230D01*
X168050936Y-116515669D01*
X168066857Y-116513230D01*
X168085633Y-116511800D01*
X168475721Y-116511800D01*
X168542760Y-116531485D01*
X168546844Y-116534225D01*
X168622356Y-116587099D01*
X168622358Y-116587100D01*
X168622361Y-116587102D01*
X168820670Y-116679575D01*
X169032023Y-116736207D01*
X169214926Y-116752208D01*
X169249998Y-116755277D01*
X169250000Y-116755277D01*
X169250002Y-116755277D01*
X169278254Y-116752805D01*
X169467977Y-116736207D01*
X169679330Y-116679575D01*
X169877639Y-116587102D01*
X169896521Y-116573880D01*
X169969294Y-116522925D01*
X170035500Y-116500598D01*
X170040417Y-116500500D01*
X173987284Y-116500500D01*
X174076358Y-116502757D01*
X174076358Y-116502756D01*
X174076363Y-116502757D01*
X174136753Y-116491932D01*
X174141412Y-116491280D01*
X174183607Y-116486988D01*
X174202438Y-116485074D01*
X174235227Y-116474786D01*
X174242840Y-116472918D01*
X174276653Y-116466858D01*
X174333621Y-116444101D01*
X174338053Y-116442524D01*
X174396588Y-116424159D01*
X174426627Y-116407484D01*
X174433708Y-116404122D01*
X174465617Y-116391377D01*
X174516854Y-116357608D01*
X174520851Y-116355187D01*
X174574502Y-116325409D01*
X174600568Y-116303030D01*
X174606843Y-116298300D01*
X174635519Y-116279402D01*
X174678917Y-116236002D01*
X174682336Y-116232834D01*
X174728895Y-116192866D01*
X174740391Y-116178012D01*
X174753011Y-116164044D01*
X174774353Y-116143759D01*
X174809400Y-116093404D01*
X174812225Y-116089657D01*
X174850998Y-116042107D01*
X174866907Y-116011648D01*
X174870967Y-116004948D01*
X174890595Y-115976749D01*
X174914792Y-115920360D01*
X174916798Y-115916135D01*
X174945209Y-115861749D01*
X174954660Y-115828715D01*
X174957291Y-115821328D01*
X174965783Y-115801541D01*
X174970840Y-115789758D01*
X174983193Y-115729640D01*
X174984306Y-115725112D01*
X175001187Y-115666118D01*
X175003795Y-115631855D01*
X175004887Y-115624076D01*
X175011800Y-115590439D01*
X175011800Y-115529101D01*
X175011979Y-115524392D01*
X175016637Y-115463225D01*
X175012297Y-115429141D01*
X175011800Y-115421302D01*
X175011800Y-114250001D01*
X176434993Y-114250001D01*
X176454994Y-114529651D01*
X176454995Y-114529658D01*
X176514588Y-114803599D01*
X176612567Y-115066294D01*
X176612569Y-115066298D01*
X176746927Y-115312357D01*
X176746932Y-115312365D01*
X176848457Y-115447988D01*
X176848458Y-115447988D01*
X177556496Y-114739949D01*
X177625018Y-114849881D01*
X177761637Y-114993604D01*
X177908044Y-115095507D01*
X177202010Y-115801540D01*
X177202011Y-115801541D01*
X177337634Y-115903067D01*
X177337642Y-115903072D01*
X177583701Y-116037430D01*
X177583705Y-116037432D01*
X177846400Y-116135411D01*
X178120341Y-116195004D01*
X178120348Y-116195005D01*
X178399999Y-116215007D01*
X178400001Y-116215007D01*
X178679651Y-116195005D01*
X178679658Y-116195004D01*
X178953599Y-116135411D01*
X179216294Y-116037432D01*
X179216298Y-116037430D01*
X179462357Y-115903072D01*
X179462358Y-115903071D01*
X179597988Y-115801540D01*
X178889738Y-115093291D01*
X178959859Y-115054371D01*
X179110317Y-114925207D01*
X179231695Y-114768400D01*
X179244943Y-114741390D01*
X179951540Y-115447988D01*
X180053071Y-115312358D01*
X180053072Y-115312357D01*
X180187430Y-115066298D01*
X180187432Y-115066294D01*
X180285411Y-114803599D01*
X180345004Y-114529658D01*
X180345005Y-114529651D01*
X180365007Y-114250001D01*
X190534993Y-114250001D01*
X190554994Y-114529651D01*
X190554995Y-114529658D01*
X190614588Y-114803599D01*
X190712567Y-115066294D01*
X190712569Y-115066298D01*
X190846927Y-115312357D01*
X190846932Y-115312365D01*
X190948457Y-115447988D01*
X190948458Y-115447988D01*
X191656496Y-114739949D01*
X191725018Y-114849881D01*
X191861637Y-114993604D01*
X192008044Y-115095507D01*
X191302010Y-115801540D01*
X191302011Y-115801541D01*
X191437634Y-115903067D01*
X191437642Y-115903072D01*
X191683701Y-116037430D01*
X191683705Y-116037432D01*
X191946400Y-116135411D01*
X192220341Y-116195004D01*
X192220348Y-116195005D01*
X192499999Y-116215007D01*
X192500001Y-116215007D01*
X192779651Y-116195005D01*
X192779658Y-116195004D01*
X193053599Y-116135411D01*
X193316294Y-116037432D01*
X193316298Y-116037430D01*
X193562357Y-115903072D01*
X193562358Y-115903071D01*
X193697988Y-115801540D01*
X192989738Y-115093291D01*
X193059859Y-115054371D01*
X193210317Y-114925207D01*
X193331695Y-114768400D01*
X193344943Y-114741391D01*
X194051540Y-115447988D01*
X194153071Y-115312358D01*
X194153072Y-115312357D01*
X194287430Y-115066298D01*
X194287432Y-115066294D01*
X194385411Y-114803599D01*
X194445004Y-114529658D01*
X194445005Y-114529651D01*
X194465007Y-114250001D01*
X194465007Y-114249998D01*
X194445005Y-113970348D01*
X194445004Y-113970341D01*
X194385411Y-113696400D01*
X194287432Y-113433705D01*
X194287430Y-113433701D01*
X194153072Y-113187642D01*
X194153067Y-113187634D01*
X194051541Y-113052011D01*
X194051540Y-113052010D01*
X193343502Y-113760048D01*
X193274982Y-113650119D01*
X193138363Y-113506396D01*
X192991954Y-113404492D01*
X193697988Y-112698458D01*
X193697988Y-112698457D01*
X193562365Y-112596932D01*
X193562357Y-112596927D01*
X193316298Y-112462569D01*
X193316294Y-112462567D01*
X193053599Y-112364588D01*
X192779658Y-112304995D01*
X192779651Y-112304994D01*
X192500001Y-112284993D01*
X192499999Y-112284993D01*
X192220348Y-112304994D01*
X192220341Y-112304995D01*
X191946400Y-112364588D01*
X191683705Y-112462567D01*
X191683701Y-112462569D01*
X191437642Y-112596927D01*
X191302011Y-112698458D01*
X192010261Y-113406708D01*
X191940141Y-113445629D01*
X191789683Y-113574793D01*
X191668305Y-113731600D01*
X191655056Y-113758609D01*
X190948458Y-113052011D01*
X190846927Y-113187642D01*
X190712569Y-113433701D01*
X190712567Y-113433705D01*
X190614588Y-113696400D01*
X190554995Y-113970341D01*
X190554994Y-113970348D01*
X190534993Y-114249998D01*
X190534993Y-114250001D01*
X180365007Y-114250001D01*
X180365007Y-114249998D01*
X180345005Y-113970348D01*
X180345004Y-113970341D01*
X180285411Y-113696400D01*
X180187432Y-113433705D01*
X180187430Y-113433701D01*
X180053072Y-113187642D01*
X180053067Y-113187634D01*
X179951541Y-113052011D01*
X179951540Y-113052010D01*
X179243502Y-113760048D01*
X179174982Y-113650119D01*
X179038363Y-113506396D01*
X178891954Y-113404492D01*
X179597988Y-112698458D01*
X179597988Y-112698457D01*
X179462365Y-112596932D01*
X179462357Y-112596927D01*
X179216298Y-112462569D01*
X179216294Y-112462567D01*
X178953599Y-112364588D01*
X178679658Y-112304995D01*
X178679651Y-112304994D01*
X178400001Y-112284993D01*
X178399999Y-112284993D01*
X178120348Y-112304994D01*
X178120341Y-112304995D01*
X177846400Y-112364588D01*
X177583705Y-112462567D01*
X177583701Y-112462569D01*
X177337642Y-112596927D01*
X177202011Y-112698458D01*
X177910261Y-113406708D01*
X177840141Y-113445629D01*
X177689683Y-113574793D01*
X177568305Y-113731600D01*
X177555056Y-113758609D01*
X176848458Y-113052011D01*
X176746927Y-113187642D01*
X176612569Y-113433701D01*
X176612567Y-113433705D01*
X176514588Y-113696400D01*
X176454995Y-113970341D01*
X176454994Y-113970348D01*
X176434993Y-114249998D01*
X176434993Y-114250001D01*
X175011800Y-114250001D01*
X175011800Y-112465781D01*
X175031485Y-112398742D01*
X175048115Y-112378104D01*
X175698468Y-111727751D01*
X175763053Y-111666359D01*
X175786022Y-111633356D01*
X175798099Y-111616006D01*
X175800938Y-111612241D01*
X175811517Y-111599267D01*
X175839698Y-111564707D01*
X175855601Y-111534260D01*
X175859674Y-111527539D01*
X175864489Y-111520620D01*
X175879295Y-111499349D01*
X175903492Y-111442960D01*
X175905498Y-111438735D01*
X175933909Y-111384349D01*
X175943360Y-111351315D01*
X175945991Y-111343928D01*
X175949166Y-111336530D01*
X175959540Y-111312358D01*
X175971893Y-111252240D01*
X175973006Y-111247712D01*
X175989887Y-111188718D01*
X175992495Y-111154455D01*
X175993587Y-111146676D01*
X176000286Y-111114083D01*
X176000500Y-111113041D01*
X176000500Y-111051701D01*
X176000679Y-111046992D01*
X176005337Y-110985826D01*
X176000997Y-110951742D01*
X176000500Y-110943903D01*
X176000500Y-109745019D01*
X176018962Y-109679921D01*
X176032204Y-109658452D01*
X176037549Y-109649787D01*
X176090436Y-109490185D01*
X176100500Y-109391674D01*
X176100500Y-108858326D01*
X176090436Y-108759815D01*
X176037549Y-108600213D01*
X176037545Y-108600207D01*
X176037544Y-108600204D01*
X175949283Y-108457112D01*
X175949280Y-108457108D01*
X175830391Y-108338219D01*
X175830387Y-108338216D01*
X175687295Y-108249955D01*
X175687289Y-108249952D01*
X175687287Y-108249951D01*
X175527685Y-108197064D01*
X175527683Y-108197063D01*
X175429181Y-108187000D01*
X175429174Y-108187000D01*
X175384604Y-108187000D01*
X175353521Y-108183041D01*
X175349659Y-108182041D01*
X175289694Y-108146180D01*
X175258637Y-108083593D01*
X175266346Y-108014150D01*
X175310376Y-107959899D01*
X175376746Y-107938064D01*
X175380742Y-107938000D01*
X175429169Y-107938000D01*
X175429174Y-107938000D01*
X175527685Y-107927936D01*
X175687287Y-107875049D01*
X175830391Y-107786781D01*
X175949281Y-107667891D01*
X176007818Y-107572989D01*
X176022367Y-107549402D01*
X176074315Y-107502678D01*
X176127905Y-107490500D01*
X176667870Y-107490500D01*
X176734909Y-107510185D01*
X176767137Y-107540190D01*
X176914561Y-107737126D01*
X176914577Y-107737144D01*
X177112855Y-107935422D01*
X177112873Y-107935438D01*
X177337363Y-108103489D01*
X177337371Y-108103494D01*
X177583492Y-108237886D01*
X177583496Y-108237888D01*
X177583498Y-108237889D01*
X177846252Y-108335891D01*
X177966287Y-108362003D01*
X178120273Y-108395501D01*
X178120275Y-108395501D01*
X178120279Y-108395502D01*
X178368855Y-108413280D01*
X178399999Y-108415508D01*
X178400000Y-108415508D01*
X178400001Y-108415508D01*
X178428024Y-108413503D01*
X178679721Y-108395502D01*
X178953748Y-108335891D01*
X179216502Y-108237889D01*
X179462634Y-108103491D01*
X179687134Y-107935432D01*
X179885432Y-107737134D01*
X180053491Y-107512634D01*
X180187889Y-107266502D01*
X180285891Y-107003748D01*
X180345502Y-106729721D01*
X180365508Y-106450000D01*
X180365151Y-106445014D01*
X180353918Y-106287952D01*
X180345502Y-106170279D01*
X180344964Y-106167808D01*
X180315696Y-106033265D01*
X180285891Y-105896252D01*
X180187889Y-105633498D01*
X180171497Y-105603479D01*
X180053494Y-105387371D01*
X180053489Y-105387363D01*
X179885438Y-105162873D01*
X179885422Y-105162855D01*
X179687144Y-104964577D01*
X179687126Y-104964561D01*
X179462636Y-104796510D01*
X179462628Y-104796505D01*
X179301544Y-104708546D01*
X179252139Y-104659140D01*
X179237287Y-104590868D01*
X179261704Y-104525403D01*
X179301545Y-104490881D01*
X179462360Y-104403070D01*
X179597988Y-104301540D01*
X178889738Y-103593291D01*
X178959859Y-103554371D01*
X179110317Y-103425207D01*
X179231695Y-103268400D01*
X179244943Y-103241390D01*
X179951540Y-103947988D01*
X180053071Y-103812358D01*
X180053072Y-103812357D01*
X180187430Y-103566298D01*
X180187432Y-103566294D01*
X180285411Y-103303599D01*
X180345004Y-103029658D01*
X180345005Y-103029651D01*
X180365007Y-102750001D01*
X180365007Y-102749998D01*
X180345005Y-102470348D01*
X180345004Y-102470341D01*
X180285411Y-102196400D01*
X180187432Y-101933705D01*
X180187430Y-101933701D01*
X180053072Y-101687642D01*
X180053067Y-101687634D01*
X179951541Y-101552011D01*
X179951540Y-101552010D01*
X179243502Y-102260048D01*
X179174982Y-102150119D01*
X179038363Y-102006396D01*
X178891954Y-101904492D01*
X179597988Y-101198458D01*
X179597988Y-101198457D01*
X179462365Y-101096932D01*
X179462357Y-101096927D01*
X179216298Y-100962569D01*
X179216294Y-100962567D01*
X178953599Y-100864588D01*
X178679658Y-100804995D01*
X178679651Y-100804994D01*
X178400001Y-100784993D01*
X178399999Y-100784993D01*
X178120348Y-100804994D01*
X178120341Y-100804995D01*
X177846400Y-100864588D01*
X177583705Y-100962567D01*
X177583701Y-100962569D01*
X177337642Y-101096927D01*
X177202011Y-101198458D01*
X177910261Y-101906708D01*
X177840141Y-101945629D01*
X177689683Y-102074793D01*
X177568305Y-102231600D01*
X177555056Y-102258609D01*
X176848458Y-101552011D01*
X176746927Y-101687642D01*
X176612569Y-101933701D01*
X176612567Y-101933705D01*
X176514588Y-102196400D01*
X176454995Y-102470341D01*
X176454994Y-102470348D01*
X176434993Y-102749998D01*
X176434993Y-102750001D01*
X176454994Y-103029651D01*
X176454995Y-103029658D01*
X176514588Y-103303599D01*
X176612567Y-103566294D01*
X176612569Y-103566298D01*
X176746927Y-103812357D01*
X176746932Y-103812365D01*
X176848457Y-103947988D01*
X176848458Y-103947988D01*
X177556496Y-103239949D01*
X177625018Y-103349881D01*
X177761637Y-103493604D01*
X177908044Y-103595507D01*
X177202010Y-104301540D01*
X177202011Y-104301541D01*
X177337634Y-104403067D01*
X177337641Y-104403072D01*
X177498455Y-104490882D01*
X177547860Y-104540287D01*
X177562712Y-104608560D01*
X177538295Y-104674024D01*
X177498456Y-104708546D01*
X177337365Y-104796509D01*
X177337363Y-104796510D01*
X177112873Y-104964561D01*
X177112855Y-104964577D01*
X176914577Y-105162855D01*
X176914561Y-105162873D01*
X176746510Y-105387363D01*
X176746508Y-105387366D01*
X176726000Y-105424926D01*
X176676595Y-105474332D01*
X176617167Y-105489500D01*
X175522717Y-105489500D01*
X175433637Y-105487243D01*
X175433628Y-105487243D01*
X175380636Y-105496741D01*
X175373254Y-105498064D01*
X175368595Y-105498718D01*
X175307564Y-105504925D01*
X175307562Y-105504926D01*
X175274780Y-105515210D01*
X175267156Y-105517081D01*
X175259308Y-105518488D01*
X175233349Y-105523141D01*
X175233344Y-105523142D01*
X175188394Y-105541097D01*
X175118835Y-105547684D01*
X175056758Y-105515618D01*
X175021871Y-105455082D01*
X175018399Y-105425943D01*
X175018399Y-102576529D01*
X175018398Y-102576523D01*
X175018218Y-102574853D01*
X175011991Y-102516917D01*
X175007305Y-102504354D01*
X174961697Y-102382071D01*
X174961693Y-102382064D01*
X174875447Y-102266855D01*
X174875444Y-102266852D01*
X174760235Y-102180606D01*
X174760228Y-102180602D01*
X174625382Y-102130308D01*
X174625383Y-102130308D01*
X174565783Y-102123901D01*
X174565781Y-102123900D01*
X174565773Y-102123900D01*
X174565764Y-102123900D01*
X173479429Y-102123900D01*
X173479423Y-102123901D01*
X173419816Y-102130308D01*
X173284971Y-102180602D01*
X173284964Y-102180606D01*
X173169755Y-102266852D01*
X173169752Y-102266855D01*
X173083506Y-102382064D01*
X173083502Y-102382071D01*
X173033210Y-102516913D01*
X173033209Y-102516917D01*
X173028097Y-102564458D01*
X173001361Y-102629006D01*
X172943968Y-102668854D01*
X172904809Y-102675200D01*
X172117287Y-102675200D01*
X172050248Y-102655515D01*
X172004493Y-102602711D01*
X171993998Y-102564456D01*
X171988898Y-102517027D01*
X171988896Y-102517020D01*
X171938654Y-102382313D01*
X171938650Y-102382306D01*
X171852490Y-102267212D01*
X171852487Y-102267209D01*
X171737393Y-102181049D01*
X171737386Y-102181045D01*
X171602679Y-102130803D01*
X171602672Y-102130801D01*
X171543144Y-102124400D01*
X171250000Y-102124400D01*
X171250000Y-106375600D01*
X171543128Y-106375600D01*
X171543144Y-106375599D01*
X171602672Y-106369198D01*
X171602679Y-106369196D01*
X171737386Y-106318954D01*
X171737393Y-106318950D01*
X171852487Y-106232790D01*
X171852490Y-106232787D01*
X171938650Y-106117693D01*
X171938654Y-106117686D01*
X171988896Y-105982979D01*
X171988898Y-105982972D01*
X171993998Y-105935544D01*
X172020736Y-105870993D01*
X172078129Y-105831145D01*
X172117287Y-105824800D01*
X172886800Y-105824800D01*
X172953839Y-105844485D01*
X172999594Y-105897289D01*
X173010800Y-105948800D01*
X173010800Y-105998583D01*
X173008543Y-106087662D01*
X173008543Y-106087670D01*
X173019364Y-106148039D01*
X173020018Y-106152704D01*
X173026225Y-106213730D01*
X173026227Y-106213744D01*
X173036508Y-106246513D01*
X173038379Y-106254137D01*
X173044442Y-106287952D01*
X173044442Y-106287955D01*
X173056823Y-106318950D01*
X173065782Y-106341379D01*
X173067194Y-106344912D01*
X173068774Y-106349351D01*
X173087141Y-106407888D01*
X173087144Y-106407895D01*
X173103809Y-106437919D01*
X173107179Y-106445014D01*
X173119922Y-106476914D01*
X173119927Y-106476924D01*
X173153677Y-106528133D01*
X173156118Y-106532163D01*
X173185888Y-106585798D01*
X173185889Y-106585799D01*
X173185891Y-106585802D01*
X173208268Y-106611867D01*
X173212993Y-106618135D01*
X173231897Y-106646818D01*
X173275265Y-106690186D01*
X173278468Y-106693642D01*
X173318435Y-106740196D01*
X173345599Y-106761223D01*
X173351486Y-106766407D01*
X173626210Y-107041131D01*
X173873738Y-107288659D01*
X173907223Y-107349982D01*
X173909414Y-107363724D01*
X173909562Y-107365180D01*
X173962450Y-107524784D01*
X173962455Y-107524795D01*
X174050716Y-107667887D01*
X174050719Y-107667891D01*
X174169608Y-107786780D01*
X174169612Y-107786783D01*
X174312704Y-107875044D01*
X174312707Y-107875045D01*
X174312713Y-107875049D01*
X174472315Y-107927936D01*
X174570826Y-107938000D01*
X174617997Y-107938000D01*
X174669756Y-107949318D01*
X174671934Y-107950319D01*
X174724637Y-107996190D01*
X174744174Y-108063273D01*
X174724342Y-108130269D01*
X174671437Y-108175907D01*
X174620174Y-108187000D01*
X174570818Y-108187000D01*
X174472316Y-108197063D01*
X174472315Y-108197064D01*
X174408751Y-108218127D01*
X174312715Y-108249950D01*
X174312704Y-108249955D01*
X174169612Y-108338216D01*
X174169608Y-108338219D01*
X174050719Y-108457108D01*
X174050716Y-108457112D01*
X173962455Y-108600204D01*
X173962450Y-108600215D01*
X173951895Y-108632069D01*
X173909564Y-108759815D01*
X173909564Y-108759816D01*
X173909563Y-108759816D01*
X173899500Y-108858318D01*
X173899500Y-109391681D01*
X173909563Y-109490183D01*
X173909564Y-109490185D01*
X173932195Y-109558481D01*
X173962450Y-109649785D01*
X173962453Y-109649791D01*
X173981038Y-109679921D01*
X173999500Y-109745019D01*
X173999500Y-109749900D01*
X173979815Y-109816939D01*
X173927011Y-109862694D01*
X173875500Y-109873900D01*
X173468129Y-109873900D01*
X173468123Y-109873901D01*
X173408516Y-109880308D01*
X173273671Y-109930602D01*
X173273664Y-109930606D01*
X173158455Y-110016852D01*
X173158452Y-110016855D01*
X173072206Y-110132064D01*
X173072202Y-110132071D01*
X173021910Y-110266913D01*
X173021909Y-110266917D01*
X173016797Y-110314458D01*
X172990061Y-110379006D01*
X172932668Y-110418854D01*
X172893509Y-110425200D01*
X172105987Y-110425200D01*
X172038948Y-110405515D01*
X171993193Y-110352711D01*
X171982698Y-110314456D01*
X171977598Y-110267027D01*
X171977596Y-110267020D01*
X171927354Y-110132313D01*
X171927350Y-110132306D01*
X171841190Y-110017212D01*
X171841187Y-110017209D01*
X171726093Y-109931049D01*
X171726086Y-109931045D01*
X171591379Y-109880803D01*
X171591372Y-109880801D01*
X171531844Y-109874400D01*
X171238700Y-109874400D01*
X171238700Y-114125600D01*
X171531828Y-114125600D01*
X171531844Y-114125599D01*
X171591372Y-114119198D01*
X171591379Y-114119196D01*
X171726086Y-114068954D01*
X171726093Y-114068950D01*
X171841187Y-113982790D01*
X171841190Y-113982787D01*
X171927350Y-113867693D01*
X171927354Y-113867686D01*
X171977596Y-113732979D01*
X171977598Y-113732972D01*
X171982698Y-113685544D01*
X172009436Y-113620993D01*
X172066829Y-113581145D01*
X172105987Y-113574800D01*
X172886800Y-113574800D01*
X172953839Y-113594485D01*
X172999594Y-113647289D01*
X173010800Y-113698800D01*
X173010800Y-114375500D01*
X172991115Y-114442539D01*
X172938311Y-114488294D01*
X172886800Y-114499500D01*
X170040417Y-114499500D01*
X169973378Y-114479815D01*
X169969294Y-114477075D01*
X169877643Y-114412900D01*
X169877639Y-114412898D01*
X169836057Y-114393508D01*
X169679330Y-114320425D01*
X169679327Y-114320424D01*
X169679325Y-114320423D01*
X169522405Y-114278377D01*
X169462745Y-114242012D01*
X169432216Y-114179165D01*
X169430499Y-114158602D01*
X169430499Y-113462129D01*
X169430498Y-113462123D01*
X169430497Y-113462116D01*
X169424091Y-113402517D01*
X169401350Y-113341546D01*
X169373797Y-113267671D01*
X169373793Y-113267664D01*
X169287547Y-113152455D01*
X169287544Y-113152452D01*
X169172335Y-113066206D01*
X169172328Y-113066202D01*
X169037482Y-113015908D01*
X169029938Y-113014126D01*
X169030441Y-113011994D01*
X168976184Y-112989513D01*
X168936342Y-112932117D01*
X168930000Y-112892970D01*
X168930000Y-112607030D01*
X168949685Y-112539991D01*
X169002489Y-112494236D01*
X169030116Y-112486657D01*
X169029932Y-112485876D01*
X169037479Y-112484092D01*
X169037481Y-112484091D01*
X169037483Y-112484091D01*
X169172331Y-112433796D01*
X169287546Y-112347546D01*
X169360569Y-112250000D01*
X169993400Y-112250000D01*
X169993400Y-113673444D01*
X169999801Y-113732972D01*
X169999803Y-113732979D01*
X170050045Y-113867686D01*
X170050049Y-113867693D01*
X170136209Y-113982787D01*
X170136212Y-113982790D01*
X170251306Y-114068950D01*
X170251313Y-114068954D01*
X170386020Y-114119196D01*
X170386027Y-114119198D01*
X170445555Y-114125599D01*
X170445572Y-114125600D01*
X170738700Y-114125600D01*
X170738700Y-112250000D01*
X169993400Y-112250000D01*
X169360569Y-112250000D01*
X169373796Y-112232331D01*
X169424091Y-112097483D01*
X169430500Y-112037873D01*
X169430500Y-111750000D01*
X169993400Y-111750000D01*
X170738700Y-111750000D01*
X170738700Y-109874400D01*
X170445555Y-109874400D01*
X170386027Y-109880801D01*
X170386020Y-109880803D01*
X170251313Y-109931045D01*
X170251306Y-109931049D01*
X170136212Y-110017209D01*
X170136209Y-110017212D01*
X170050049Y-110132306D01*
X170050045Y-110132313D01*
X169999803Y-110267020D01*
X169999801Y-110267027D01*
X169993400Y-110326555D01*
X169993400Y-111750000D01*
X169430500Y-111750000D01*
X169430499Y-110672128D01*
X169424091Y-110612517D01*
X169414840Y-110587715D01*
X169373797Y-110477671D01*
X169373793Y-110477664D01*
X169287547Y-110362455D01*
X169287544Y-110362452D01*
X169172335Y-110276206D01*
X169172328Y-110276202D01*
X169075574Y-110240116D01*
X169019640Y-110198245D01*
X168995223Y-110132781D01*
X168995378Y-110113138D01*
X169005277Y-110000000D01*
X168995820Y-109891905D01*
X169009587Y-109823407D01*
X169058202Y-109773223D01*
X169119348Y-109757099D01*
X169423471Y-109757099D01*
X169423472Y-109757099D01*
X169483083Y-109750691D01*
X169617931Y-109700396D01*
X169733146Y-109614146D01*
X169819396Y-109498931D01*
X169869691Y-109364083D01*
X169876100Y-109304473D01*
X169876099Y-108218128D01*
X169869691Y-108158517D01*
X169868591Y-108155569D01*
X169819397Y-108023671D01*
X169819393Y-108023664D01*
X169733147Y-107908455D01*
X169733144Y-107908452D01*
X169617935Y-107822206D01*
X169617928Y-107822202D01*
X169483083Y-107771908D01*
X169435543Y-107766797D01*
X169370992Y-107740058D01*
X169331145Y-107682665D01*
X169324800Y-107643508D01*
X169324800Y-106855987D01*
X169344485Y-106788948D01*
X169397289Y-106743193D01*
X169435544Y-106732698D01*
X169482972Y-106727598D01*
X169482979Y-106727596D01*
X169617686Y-106677354D01*
X169617693Y-106677350D01*
X169732787Y-106591190D01*
X169732790Y-106591187D01*
X169818950Y-106476093D01*
X169818954Y-106476086D01*
X169869196Y-106341379D01*
X169869198Y-106341372D01*
X169875599Y-106281844D01*
X169875600Y-106281827D01*
X169875600Y-106242119D01*
X169895285Y-106175080D01*
X169948089Y-106129325D01*
X170017247Y-106119381D01*
X170080803Y-106148406D01*
X170098867Y-106167808D01*
X170147513Y-106232790D01*
X170262606Y-106318950D01*
X170262613Y-106318954D01*
X170397320Y-106369196D01*
X170397327Y-106369198D01*
X170456855Y-106375599D01*
X170456872Y-106375600D01*
X170750000Y-106375600D01*
X170750000Y-104500000D01*
X170004700Y-104500000D01*
X170004700Y-104876880D01*
X169985015Y-104943919D01*
X169932211Y-104989674D01*
X169863053Y-104999618D01*
X169799497Y-104970593D01*
X169781434Y-104951192D01*
X169732787Y-104886209D01*
X169617693Y-104800049D01*
X169617686Y-104800045D01*
X169482979Y-104749803D01*
X169482972Y-104749801D01*
X169423444Y-104743400D01*
X168000000Y-104743400D01*
X168000000Y-105864700D01*
X167980315Y-105931739D01*
X167927511Y-105977494D01*
X167876000Y-105988700D01*
X165624400Y-105988700D01*
X165624400Y-106281844D01*
X165630801Y-106341372D01*
X165630803Y-106341379D01*
X165681045Y-106476086D01*
X165681049Y-106476093D01*
X165767209Y-106591187D01*
X165767212Y-106591190D01*
X165882306Y-106677350D01*
X165882313Y-106677354D01*
X166017020Y-106727596D01*
X166017027Y-106727598D01*
X166064456Y-106732698D01*
X166129007Y-106759436D01*
X166168855Y-106816829D01*
X166175200Y-106855987D01*
X166175200Y-107643508D01*
X166155515Y-107710547D01*
X166102711Y-107756302D01*
X166064455Y-107766797D01*
X166016920Y-107771907D01*
X165882071Y-107822202D01*
X165882064Y-107822206D01*
X165766855Y-107908452D01*
X165766852Y-107908455D01*
X165680606Y-108023664D01*
X165680602Y-108023671D01*
X165630308Y-108158517D01*
X165624200Y-108215335D01*
X165623901Y-108218123D01*
X165623900Y-108218135D01*
X165623900Y-109304470D01*
X165623901Y-109304476D01*
X165630308Y-109364083D01*
X165680602Y-109498928D01*
X165680606Y-109498935D01*
X165766852Y-109614144D01*
X165766855Y-109614147D01*
X165882064Y-109700393D01*
X165882071Y-109700397D01*
X165888321Y-109702728D01*
X166016917Y-109750691D01*
X166076527Y-109757100D01*
X166380652Y-109757099D01*
X166447690Y-109776783D01*
X166493445Y-109829587D01*
X166504179Y-109891905D01*
X166494723Y-109999996D01*
X166494723Y-110000003D01*
X166504619Y-110113128D01*
X166490852Y-110181628D01*
X166442236Y-110231810D01*
X166424424Y-110240116D01*
X166327671Y-110276202D01*
X166327664Y-110276206D01*
X166212455Y-110362452D01*
X166212452Y-110362455D01*
X166126206Y-110477664D01*
X166126202Y-110477671D01*
X166075908Y-110612517D01*
X166069501Y-110672116D01*
X166069501Y-110672123D01*
X166069500Y-110672135D01*
X166069500Y-112037870D01*
X166069501Y-112037876D01*
X166075908Y-112097483D01*
X166126202Y-112232328D01*
X166126206Y-112232335D01*
X166212452Y-112347544D01*
X166212455Y-112347547D01*
X166327664Y-112433793D01*
X166327671Y-112433797D01*
X166462517Y-112484091D01*
X166470062Y-112485874D01*
X166469557Y-112488010D01*
X166523795Y-112510468D01*
X166563650Y-112567856D01*
X166570000Y-112607029D01*
X166570000Y-112892969D01*
X166550315Y-112960008D01*
X166497511Y-113005763D01*
X166469883Y-113013345D01*
X166470068Y-113014124D01*
X166462520Y-113015907D01*
X166327671Y-113066202D01*
X166327664Y-113066206D01*
X166212455Y-113152452D01*
X166212452Y-113152455D01*
X166126206Y-113267664D01*
X166126202Y-113267671D01*
X166075908Y-113402517D01*
X166069501Y-113462116D01*
X166069500Y-113462127D01*
X166069500Y-113982790D01*
X166069501Y-114386800D01*
X166049817Y-114453839D01*
X165997013Y-114499594D01*
X165945501Y-114510800D01*
X164698800Y-114510800D01*
X164631761Y-114491115D01*
X164586006Y-114438311D01*
X164574800Y-114386800D01*
X164574800Y-113606491D01*
X164594485Y-113539452D01*
X164647289Y-113493697D01*
X164685547Y-113483201D01*
X164733083Y-113478091D01*
X164867928Y-113427797D01*
X164867927Y-113427797D01*
X164867931Y-113427796D01*
X164983146Y-113341546D01*
X165069396Y-113226331D01*
X165119691Y-113091483D01*
X165126100Y-113031873D01*
X165126099Y-111945528D01*
X165119691Y-111885917D01*
X165097754Y-111827102D01*
X165069397Y-111751071D01*
X165069393Y-111751064D01*
X165005981Y-111666358D01*
X164983146Y-111635854D01*
X164934269Y-111599265D01*
X164892400Y-111543333D01*
X164887416Y-111473641D01*
X164920901Y-111412318D01*
X164934263Y-111400739D01*
X164983146Y-111364146D01*
X165069396Y-111248931D01*
X165119691Y-111114083D01*
X165126100Y-111054473D01*
X165126099Y-109968128D01*
X165119691Y-109908517D01*
X165113501Y-109891922D01*
X165069397Y-109773671D01*
X165069393Y-109773664D01*
X164983147Y-109658455D01*
X164983144Y-109658452D01*
X164867935Y-109572206D01*
X164867928Y-109572202D01*
X164733083Y-109521908D01*
X164685543Y-109516797D01*
X164620992Y-109490058D01*
X164581145Y-109432665D01*
X164574800Y-109393508D01*
X164574800Y-108606491D01*
X164594485Y-108539452D01*
X164647289Y-108493697D01*
X164685547Y-108483201D01*
X164733083Y-108478091D01*
X164789341Y-108457108D01*
X164867931Y-108427796D01*
X164983146Y-108341546D01*
X165069396Y-108226331D01*
X165119691Y-108091483D01*
X165126100Y-108031873D01*
X165126099Y-106945528D01*
X165119691Y-106885917D01*
X165096759Y-106824434D01*
X165069397Y-106751071D01*
X165069393Y-106751064D01*
X164983147Y-106635855D01*
X164983144Y-106635852D01*
X164867935Y-106549606D01*
X164867928Y-106549602D01*
X164733082Y-106499308D01*
X164733083Y-106499308D01*
X164673483Y-106492901D01*
X164673481Y-106492900D01*
X164673473Y-106492900D01*
X164673465Y-106492900D01*
X164124500Y-106492900D01*
X164057461Y-106473215D01*
X164011706Y-106420411D01*
X164000500Y-106368900D01*
X164000500Y-106012676D01*
X164001252Y-105982979D01*
X164002756Y-105923636D01*
X163997152Y-105892374D01*
X163995680Y-105859692D01*
X163997011Y-105844485D01*
X164005277Y-105750000D01*
X163986207Y-105532023D01*
X163974599Y-105488700D01*
X165624400Y-105488700D01*
X167500000Y-105488700D01*
X167500000Y-104743400D01*
X166076555Y-104743400D01*
X166017027Y-104749801D01*
X166017020Y-104749803D01*
X165882313Y-104800045D01*
X165882306Y-104800049D01*
X165767212Y-104886209D01*
X165767209Y-104886212D01*
X165681049Y-105001306D01*
X165681045Y-105001313D01*
X165630803Y-105136020D01*
X165630801Y-105136027D01*
X165624400Y-105195555D01*
X165624400Y-105488700D01*
X163974599Y-105488700D01*
X163929575Y-105320670D01*
X163837102Y-105122362D01*
X163837100Y-105122359D01*
X163837099Y-105122357D01*
X163772925Y-105030707D01*
X163750598Y-104964501D01*
X163750500Y-104959584D01*
X163750500Y-104000000D01*
X170004700Y-104000000D01*
X170750000Y-104000000D01*
X170750000Y-102124400D01*
X170456855Y-102124400D01*
X170397327Y-102130801D01*
X170397320Y-102130803D01*
X170262613Y-102181045D01*
X170262606Y-102181049D01*
X170147512Y-102267209D01*
X170147509Y-102267212D01*
X170061349Y-102382306D01*
X170061345Y-102382313D01*
X170011103Y-102517020D01*
X170011101Y-102517027D01*
X170004700Y-102576555D01*
X170004700Y-104000000D01*
X163750500Y-104000000D01*
X163750500Y-103652690D01*
X163770185Y-103585651D01*
X163822989Y-103539896D01*
X163874500Y-103528690D01*
X164000000Y-103528690D01*
X164000000Y-102249990D01*
X164500000Y-102249990D01*
X164500000Y-103528690D01*
X164742328Y-103528690D01*
X164742344Y-103528689D01*
X164801872Y-103522288D01*
X164801879Y-103522286D01*
X164936586Y-103472044D01*
X164936593Y-103472040D01*
X165051687Y-103385880D01*
X165051690Y-103385877D01*
X165137850Y-103270783D01*
X165137854Y-103270776D01*
X165188096Y-103136069D01*
X165188098Y-103136062D01*
X165194499Y-103076534D01*
X165194500Y-103076517D01*
X165194500Y-102249990D01*
X164500000Y-102249990D01*
X164000000Y-102249990D01*
X163305500Y-102249990D01*
X163305500Y-102479399D01*
X163285815Y-102546438D01*
X163233011Y-102592193D01*
X163181500Y-102603399D01*
X163107534Y-102603399D01*
X163076453Y-102599441D01*
X163061931Y-102595681D01*
X162902285Y-102554346D01*
X162902287Y-102554346D01*
X162746349Y-102546438D01*
X162699064Y-102544040D01*
X162699063Y-102544040D01*
X162699061Y-102544040D01*
X162497931Y-102574852D01*
X162497927Y-102574853D01*
X162441688Y-102595681D01*
X162398624Y-102603399D01*
X162318500Y-102603399D01*
X162251461Y-102583714D01*
X162205706Y-102530910D01*
X162194500Y-102479399D01*
X162194500Y-102249990D01*
X161500000Y-102249990D01*
X161500000Y-103528690D01*
X161625500Y-103528690D01*
X161692539Y-103548375D01*
X161738294Y-103601179D01*
X161749500Y-103652690D01*
X161749500Y-104625500D01*
X161729815Y-104692539D01*
X161677011Y-104738294D01*
X161625500Y-104749500D01*
X160631099Y-104749500D01*
X160564060Y-104729815D01*
X160518305Y-104677011D01*
X160507099Y-104625500D01*
X160507099Y-104576529D01*
X160507098Y-104576523D01*
X160500691Y-104516916D01*
X160450397Y-104382071D01*
X160450393Y-104382064D01*
X160364147Y-104266855D01*
X160364144Y-104266852D01*
X160248935Y-104180606D01*
X160248928Y-104180602D01*
X160114082Y-104130308D01*
X160114083Y-104130308D01*
X160054483Y-104123901D01*
X160054481Y-104123900D01*
X160054473Y-104123900D01*
X160054464Y-104123900D01*
X158968129Y-104123900D01*
X158968123Y-104123901D01*
X158908516Y-104130308D01*
X158773671Y-104180602D01*
X158773664Y-104180606D01*
X158658455Y-104266852D01*
X158658452Y-104266855D01*
X158572206Y-104382064D01*
X158572202Y-104382071D01*
X158521910Y-104516913D01*
X158521909Y-104516917D01*
X158516797Y-104564458D01*
X158490061Y-104629006D01*
X158432668Y-104668854D01*
X158393509Y-104675200D01*
X157605987Y-104675200D01*
X157538948Y-104655515D01*
X157493193Y-104602711D01*
X157482698Y-104564456D01*
X157477598Y-104517027D01*
X157477596Y-104517020D01*
X157427354Y-104382313D01*
X157427350Y-104382306D01*
X157341190Y-104267212D01*
X157341187Y-104267209D01*
X157226093Y-104181049D01*
X157226086Y-104181045D01*
X157091379Y-104130803D01*
X157091372Y-104130801D01*
X157031844Y-104124400D01*
X156738700Y-104124400D01*
X156738700Y-112625600D01*
X156238700Y-112625600D01*
X156238700Y-104124400D01*
X155945555Y-104124400D01*
X155886027Y-104130801D01*
X155886020Y-104130803D01*
X155751313Y-104181045D01*
X155751306Y-104181049D01*
X155636212Y-104267209D01*
X155636209Y-104267212D01*
X155550049Y-104382306D01*
X155550045Y-104382313D01*
X155499803Y-104517020D01*
X155499801Y-104517026D01*
X155497789Y-104535745D01*
X155471050Y-104600296D01*
X155413658Y-104640143D01*
X155343832Y-104642636D01*
X155283744Y-104606983D01*
X155252470Y-104544503D01*
X155250500Y-104522488D01*
X155250500Y-102249990D01*
X160305500Y-102249990D01*
X160305500Y-103076534D01*
X160311901Y-103136062D01*
X160311903Y-103136069D01*
X160362145Y-103270776D01*
X160362149Y-103270783D01*
X160448309Y-103385877D01*
X160448312Y-103385880D01*
X160563406Y-103472040D01*
X160563413Y-103472044D01*
X160698120Y-103522286D01*
X160698127Y-103522288D01*
X160757655Y-103528689D01*
X160757672Y-103528690D01*
X161000000Y-103528690D01*
X161000000Y-102249990D01*
X160305500Y-102249990D01*
X155250500Y-102249990D01*
X155250500Y-101749990D01*
X160305500Y-101749990D01*
X161000000Y-101749990D01*
X161000000Y-100471290D01*
X161500000Y-100471290D01*
X161500000Y-101749990D01*
X162194500Y-101749990D01*
X163305500Y-101749990D01*
X164000000Y-101749990D01*
X164000000Y-100471290D01*
X164500000Y-100471290D01*
X164500000Y-101749990D01*
X165194500Y-101749990D01*
X165194500Y-100923462D01*
X165194499Y-100923445D01*
X165188098Y-100863917D01*
X165188096Y-100863910D01*
X165137854Y-100729203D01*
X165137850Y-100729196D01*
X165051690Y-100614102D01*
X165051687Y-100614099D01*
X164936593Y-100527939D01*
X164936586Y-100527935D01*
X164801879Y-100477693D01*
X164801872Y-100477691D01*
X164742344Y-100471290D01*
X164500000Y-100471290D01*
X164000000Y-100471290D01*
X163757655Y-100471290D01*
X163698127Y-100477691D01*
X163698120Y-100477693D01*
X163563413Y-100527935D01*
X163563406Y-100527939D01*
X163448312Y-100614099D01*
X163448309Y-100614102D01*
X163362149Y-100729196D01*
X163362145Y-100729203D01*
X163311903Y-100863910D01*
X163311901Y-100863917D01*
X163305500Y-100923445D01*
X163305500Y-101749990D01*
X162194500Y-101749990D01*
X162194500Y-100923462D01*
X162194499Y-100923445D01*
X162188098Y-100863917D01*
X162188096Y-100863910D01*
X162137854Y-100729203D01*
X162137850Y-100729196D01*
X162051690Y-100614102D01*
X162051687Y-100614099D01*
X161936593Y-100527939D01*
X161936586Y-100527935D01*
X161801879Y-100477693D01*
X161801872Y-100477691D01*
X161742344Y-100471290D01*
X161500000Y-100471290D01*
X161000000Y-100471290D01*
X160757655Y-100471290D01*
X160698127Y-100477691D01*
X160698120Y-100477693D01*
X160563413Y-100527935D01*
X160563406Y-100527939D01*
X160448312Y-100614099D01*
X160448309Y-100614102D01*
X160362149Y-100729196D01*
X160362145Y-100729203D01*
X160311903Y-100863910D01*
X160311901Y-100863917D01*
X160305500Y-100923445D01*
X160305500Y-101749990D01*
X155250500Y-101749990D01*
X155250500Y-100124500D01*
X155270185Y-100057461D01*
X155322989Y-100011706D01*
X155374500Y-100000500D01*
X204875500Y-100000500D01*
X204942539Y-100020185D01*
G37*
G04 #@! TD.AperFunction*
G04 #@! TA.AperFunction,NonConductor*
G36*
X155455703Y-107883798D02*
G01*
X155493477Y-107942576D01*
X155497789Y-107964255D01*
X155499801Y-107982972D01*
X155499803Y-107982979D01*
X155550045Y-108117686D01*
X155550049Y-108117693D01*
X155636209Y-108232787D01*
X155693578Y-108275734D01*
X155735448Y-108331668D01*
X155740432Y-108401359D01*
X155706946Y-108462682D01*
X155693578Y-108474266D01*
X155636209Y-108517212D01*
X155550049Y-108632306D01*
X155550045Y-108632313D01*
X155499803Y-108767020D01*
X155499801Y-108767026D01*
X155497789Y-108785745D01*
X155471050Y-108850296D01*
X155413658Y-108890143D01*
X155343832Y-108892636D01*
X155283744Y-108856983D01*
X155252470Y-108794503D01*
X155250500Y-108772488D01*
X155250500Y-107977511D01*
X155270185Y-107910472D01*
X155322989Y-107864717D01*
X155392147Y-107854773D01*
X155455703Y-107883798D01*
G37*
G04 #@! TD.AperFunction*
G04 #@! TA.AperFunction,NonConductor*
G36*
X158460548Y-107844485D02*
G01*
X158506303Y-107897289D01*
X158516799Y-107935547D01*
X158521908Y-107983083D01*
X158572202Y-108117928D01*
X158572206Y-108117935D01*
X158658452Y-108233144D01*
X158658453Y-108233144D01*
X158658454Y-108233146D01*
X158688314Y-108255499D01*
X158715344Y-108275734D01*
X158757214Y-108331668D01*
X158762198Y-108401360D01*
X158728712Y-108462682D01*
X158715344Y-108474266D01*
X158658452Y-108516855D01*
X158572206Y-108632064D01*
X158572202Y-108632071D01*
X158524557Y-108759816D01*
X158521909Y-108766917D01*
X158516797Y-108814458D01*
X158490061Y-108879006D01*
X158432668Y-108918854D01*
X158393509Y-108925200D01*
X157605987Y-108925200D01*
X157538948Y-108905515D01*
X157493193Y-108852711D01*
X157482698Y-108814456D01*
X157477598Y-108767027D01*
X157477596Y-108767020D01*
X157427354Y-108632313D01*
X157427350Y-108632306D01*
X157341191Y-108517213D01*
X157283822Y-108474267D01*
X157241951Y-108418333D01*
X157236967Y-108348641D01*
X157270452Y-108287318D01*
X157283822Y-108275733D01*
X157341191Y-108232786D01*
X157427350Y-108117693D01*
X157427354Y-108117686D01*
X157477596Y-107982979D01*
X157477598Y-107982972D01*
X157482698Y-107935544D01*
X157509436Y-107870993D01*
X157566829Y-107831145D01*
X157605987Y-107824800D01*
X158393509Y-107824800D01*
X158460548Y-107844485D01*
G37*
G04 #@! TD.AperFunction*
G04 #@! TA.AperFunction,NonConductor*
G36*
X160823861Y-106770185D02*
G01*
X160869616Y-106822989D01*
X160880111Y-106887752D01*
X160873900Y-106945527D01*
X160873900Y-106945534D01*
X160873900Y-106945535D01*
X160873900Y-108031870D01*
X160873901Y-108031876D01*
X160880308Y-108091483D01*
X160930602Y-108226328D01*
X160930606Y-108226335D01*
X161016852Y-108341544D01*
X161016855Y-108341547D01*
X161132064Y-108427793D01*
X161132071Y-108427797D01*
X161168012Y-108441202D01*
X161266917Y-108478091D01*
X161314458Y-108483202D01*
X161379006Y-108509939D01*
X161418854Y-108567332D01*
X161425200Y-108606491D01*
X161425200Y-109393508D01*
X161405515Y-109460547D01*
X161352711Y-109506302D01*
X161314455Y-109516797D01*
X161266920Y-109521907D01*
X161132071Y-109572202D01*
X161132064Y-109572206D01*
X161016855Y-109658452D01*
X161016852Y-109658455D01*
X160930606Y-109773664D01*
X160930602Y-109773671D01*
X160877598Y-109915785D01*
X160875182Y-109914883D01*
X160846805Y-109964725D01*
X160784897Y-109997115D01*
X160760696Y-109999500D01*
X160631099Y-109999500D01*
X160564060Y-109979815D01*
X160518305Y-109927011D01*
X160507099Y-109875500D01*
X160507099Y-108826529D01*
X160507098Y-108826523D01*
X160500691Y-108766916D01*
X160450397Y-108632071D01*
X160450393Y-108632064D01*
X160381063Y-108539452D01*
X160364146Y-108516854D01*
X160307254Y-108474265D01*
X160265385Y-108418333D01*
X160260401Y-108348641D01*
X160293886Y-108287318D01*
X160307248Y-108275739D01*
X160364146Y-108233146D01*
X160450396Y-108117931D01*
X160500691Y-107983083D01*
X160507100Y-107923473D01*
X160507100Y-106874500D01*
X160526785Y-106807461D01*
X160579589Y-106761706D01*
X160631100Y-106750500D01*
X160756822Y-106750500D01*
X160823861Y-106770185D01*
G37*
G04 #@! TD.AperFunction*
M02*
