G04 #@! TF.GenerationSoftware,KiCad,Pcbnew,7.0.9*
G04 #@! TF.CreationDate,2023-11-27T12:39:35-05:00*
G04 #@! TF.ProjectId,GE_3T_Wantcom_motherboard,47455f33-545f-4576-916e-74636f6d5f6d,0*
G04 #@! TF.SameCoordinates,Original*
G04 #@! TF.FileFunction,Copper,L2,Bot*
G04 #@! TF.FilePolarity,Positive*
%FSLAX46Y46*%
G04 Gerber Fmt 4.6, Leading zero omitted, Abs format (unit mm)*
G04 Created by KiCad (PCBNEW 7.0.9) date 2023-11-27 12:39:35*
%MOMM*%
%LPD*%
G01*
G04 APERTURE LIST*
G04 Aperture macros list*
%AMRoundRect*
0 Rectangle with rounded corners*
0 $1 Rounding radius*
0 $2 $3 $4 $5 $6 $7 $8 $9 X,Y pos of 4 corners*
0 Add a 4 corners polygon primitive as box body*
4,1,4,$2,$3,$4,$5,$6,$7,$8,$9,$2,$3,0*
0 Add four circle primitives for the rounded corners*
1,1,$1+$1,$2,$3*
1,1,$1+$1,$4,$5*
1,1,$1+$1,$6,$7*
1,1,$1+$1,$8,$9*
0 Add four rect primitives between the rounded corners*
20,1,$1+$1,$2,$3,$4,$5,0*
20,1,$1+$1,$4,$5,$6,$7,0*
20,1,$1+$1,$6,$7,$8,$9,0*
20,1,$1+$1,$8,$9,$2,$3,0*%
G04 Aperture macros list end*
G04 #@! TA.AperFunction,ComponentPad*
%ADD10C,3.500000*%
G04 #@! TD*
G04 #@! TA.AperFunction,ComponentPad*
%ADD11C,2.920000*%
G04 #@! TD*
G04 #@! TA.AperFunction,HeatsinkPad*
%ADD12R,1.500000X1.500000*%
G04 #@! TD*
G04 #@! TA.AperFunction,ComponentPad*
%ADD13R,1.500000X1.500000*%
G04 #@! TD*
G04 #@! TA.AperFunction,SMDPad,CuDef*
%ADD14RoundRect,0.225000X0.225000X0.250000X-0.225000X0.250000X-0.225000X-0.250000X0.225000X-0.250000X0*%
G04 #@! TD*
G04 #@! TA.AperFunction,SMDPad,CuDef*
%ADD15RoundRect,0.250000X-0.312500X-1.450000X0.312500X-1.450000X0.312500X1.450000X-0.312500X1.450000X0*%
G04 #@! TD*
G04 #@! TA.AperFunction,SMDPad,CuDef*
%ADD16RoundRect,0.250000X0.312500X1.450000X-0.312500X1.450000X-0.312500X-1.450000X0.312500X-1.450000X0*%
G04 #@! TD*
G04 #@! TA.AperFunction,SMDPad,CuDef*
%ADD17RoundRect,0.225000X0.250000X-0.225000X0.250000X0.225000X-0.250000X0.225000X-0.250000X-0.225000X0*%
G04 #@! TD*
G04 #@! TA.AperFunction,SMDPad,CuDef*
%ADD18RoundRect,0.218750X-0.218750X-0.256250X0.218750X-0.256250X0.218750X0.256250X-0.218750X0.256250X0*%
G04 #@! TD*
G04 #@! TA.AperFunction,SMDPad,CuDef*
%ADD19RoundRect,0.225000X-0.225000X-0.250000X0.225000X-0.250000X0.225000X0.250000X-0.225000X0.250000X0*%
G04 #@! TD*
G04 #@! TA.AperFunction,ViaPad*
%ADD20C,1.500000*%
G04 #@! TD*
G04 #@! TA.AperFunction,Conductor*
%ADD21C,0.250000*%
G04 #@! TD*
G04 APERTURE END LIST*
D10*
X158000000Y-114750000D03*
X167500000Y-102500000D03*
X202500000Y-102500000D03*
X202500000Y-114750000D03*
D11*
X178400000Y-106450000D03*
X192500000Y-106450000D03*
X178400000Y-102750000D03*
X178400000Y-114250000D03*
D12*
X181450000Y-102450000D03*
D13*
X181450000Y-106450000D03*
X181450000Y-110450000D03*
X181450000Y-114450000D03*
D12*
X185450000Y-102450000D03*
D13*
X185450000Y-106450000D03*
X185450000Y-110450000D03*
X185450000Y-114450000D03*
D12*
X189450000Y-102450000D03*
D13*
X189450000Y-106450000D03*
X189450000Y-110450000D03*
X189450000Y-114450000D03*
D11*
X192500000Y-102750000D03*
X192500000Y-114250000D03*
D14*
X179775000Y-111750000D03*
X178225000Y-111750000D03*
D15*
X170862500Y-114500000D03*
X175137500Y-114500000D03*
D14*
X192987500Y-111750000D03*
X191437500Y-111750000D03*
D16*
X200137500Y-110740000D03*
X195862500Y-110740000D03*
D17*
X183250000Y-113550000D03*
X183250000Y-112000000D03*
D18*
X191425000Y-110000000D03*
X193000000Y-110000000D03*
X178212500Y-110000000D03*
X179787500Y-110000000D03*
D19*
X174225000Y-111000000D03*
X175775000Y-111000000D03*
D15*
X163612500Y-107000000D03*
X167887500Y-107000000D03*
D17*
X187500000Y-113550000D03*
X187500000Y-112000000D03*
X196000000Y-116015000D03*
X196000000Y-114465000D03*
D20*
X170784800Y-104250000D03*
X156250000Y-106250000D03*
X170750000Y-111500000D03*
X157250000Y-101750000D03*
X204000000Y-111500000D03*
X156250000Y-111000000D03*
X202000000Y-110740000D03*
X167750000Y-110000000D03*
X169250000Y-115500000D03*
X162750000Y-105750000D03*
D21*
X167750000Y-110000000D02*
X167887500Y-109862500D01*
X167887500Y-109862500D02*
X167887500Y-107250000D01*
X178212500Y-111737500D02*
X178225000Y-111750000D01*
X175775000Y-111000000D02*
X178212500Y-111000000D01*
X175775000Y-114362500D02*
X175137500Y-115000000D01*
X178212500Y-109750000D02*
X178212500Y-110500000D01*
X178212500Y-110500000D02*
X178212500Y-111000000D01*
X175775000Y-111000000D02*
X175775000Y-114362500D01*
X178212500Y-111000000D02*
X178212500Y-111737500D01*
X191425000Y-109750000D02*
X191425000Y-111737500D01*
X179787500Y-111737500D02*
X179775000Y-111750000D01*
X191425000Y-111737500D02*
X191437500Y-111750000D01*
X191437500Y-112000000D02*
X179775000Y-112000000D01*
X179787500Y-109750000D02*
X179787500Y-111737500D01*
X195862500Y-110750000D02*
X193000000Y-110750000D01*
X195862500Y-110740000D02*
X195862500Y-112990000D01*
X193000000Y-109750000D02*
X193000000Y-110500000D01*
X195862500Y-114327500D02*
X196000000Y-114465000D01*
X195862500Y-112990000D02*
X195862500Y-114327500D01*
X193000000Y-110500000D02*
X193000000Y-111737500D01*
X193000000Y-111737500D02*
X192987500Y-111750000D01*
X202000000Y-110740000D02*
X200137500Y-110740000D01*
X169750000Y-115000000D02*
X170862500Y-115000000D01*
X169250000Y-115500000D02*
X169750000Y-115000000D01*
X162750000Y-105750000D02*
X163612500Y-105750000D01*
G04 #@! TA.AperFunction,Conductor*
G36*
X177217539Y-111645185D02*
G01*
X177263294Y-111697989D01*
X177274500Y-111749500D01*
X177274500Y-112048336D01*
X177274501Y-112048355D01*
X177284650Y-112147707D01*
X177284651Y-112147710D01*
X177337996Y-112308694D01*
X177338001Y-112308705D01*
X177402264Y-112412890D01*
X177420705Y-112480282D01*
X177399783Y-112546946D01*
X177356157Y-112586817D01*
X177337642Y-112596927D01*
X177202011Y-112698458D01*
X177910261Y-113406708D01*
X177840141Y-113445629D01*
X177689683Y-113574793D01*
X177568305Y-113731600D01*
X177555056Y-113758609D01*
X176848458Y-113052011D01*
X176746927Y-113187642D01*
X176633332Y-113395677D01*
X176583927Y-113445082D01*
X176515654Y-113459934D01*
X176450190Y-113435517D01*
X176408318Y-113379584D01*
X176400500Y-113336250D01*
X176400500Y-111924546D01*
X176420185Y-111857507D01*
X176447596Y-111827274D01*
X176453032Y-111822975D01*
X176453044Y-111822968D01*
X176572968Y-111703044D01*
X176584465Y-111684403D01*
X176636412Y-111637679D01*
X176690004Y-111625500D01*
X177150500Y-111625500D01*
X177217539Y-111645185D01*
G37*
G04 #@! TD.AperFunction*
G04 #@! TA.AperFunction,Conductor*
G36*
X204942539Y-100020185D02*
G01*
X204988294Y-100072989D01*
X204999500Y-100124500D01*
X204999500Y-117125500D01*
X204979815Y-117192539D01*
X204927011Y-117238294D01*
X204875500Y-117249500D01*
X155374500Y-117249500D01*
X155307461Y-117229815D01*
X155261706Y-117177011D01*
X155250500Y-117125500D01*
X155250500Y-115500002D01*
X167994723Y-115500002D01*
X168013793Y-115717975D01*
X168013793Y-115717979D01*
X168070422Y-115929322D01*
X168070424Y-115929326D01*
X168070425Y-115929330D01*
X168116661Y-116028484D01*
X168162897Y-116127638D01*
X168162898Y-116127639D01*
X168288402Y-116306877D01*
X168443123Y-116461598D01*
X168622361Y-116587102D01*
X168820670Y-116679575D01*
X169032023Y-116736207D01*
X169214926Y-116752208D01*
X169249998Y-116755277D01*
X169250000Y-116755277D01*
X169250002Y-116755277D01*
X169278254Y-116752805D01*
X169467977Y-116736207D01*
X169679330Y-116679575D01*
X169877639Y-116587102D01*
X169925761Y-116553405D01*
X169939939Y-116543479D01*
X170006145Y-116521151D01*
X170073912Y-116538161D01*
X170076160Y-116539514D01*
X170081342Y-116542710D01*
X170081344Y-116542712D01*
X170230666Y-116634814D01*
X170397203Y-116689999D01*
X170499991Y-116700500D01*
X171225008Y-116700499D01*
X171225016Y-116700498D01*
X171225019Y-116700498D01*
X171301042Y-116692732D01*
X171327797Y-116689999D01*
X171494334Y-116634814D01*
X171643656Y-116542712D01*
X171767712Y-116418656D01*
X171859814Y-116269334D01*
X171914999Y-116102797D01*
X171925500Y-116000009D01*
X171925500Y-116000001D01*
X174074500Y-116000001D01*
X174074501Y-116000018D01*
X174085000Y-116102796D01*
X174085001Y-116102799D01*
X174140185Y-116269331D01*
X174140187Y-116269336D01*
X174163345Y-116306881D01*
X174232288Y-116418656D01*
X174356344Y-116542712D01*
X174505666Y-116634814D01*
X174672203Y-116689999D01*
X174774991Y-116700500D01*
X175500008Y-116700499D01*
X175500016Y-116700498D01*
X175500019Y-116700498D01*
X175576042Y-116692732D01*
X175602797Y-116689999D01*
X175769334Y-116634814D01*
X175918656Y-116542712D01*
X176042712Y-116418656D01*
X176134814Y-116269334D01*
X176136250Y-116265000D01*
X195025001Y-116265000D01*
X195025001Y-116288322D01*
X195035144Y-116387607D01*
X195088452Y-116548481D01*
X195088457Y-116548492D01*
X195177424Y-116692728D01*
X195177427Y-116692732D01*
X195297267Y-116812572D01*
X195297271Y-116812575D01*
X195441507Y-116901542D01*
X195441518Y-116901547D01*
X195602393Y-116954855D01*
X195701683Y-116964999D01*
X195749999Y-116964998D01*
X195750000Y-116964998D01*
X195750000Y-116265000D01*
X196250000Y-116265000D01*
X196250000Y-116964999D01*
X196298308Y-116964999D01*
X196298322Y-116964998D01*
X196397607Y-116954855D01*
X196558481Y-116901547D01*
X196558492Y-116901542D01*
X196702728Y-116812575D01*
X196702732Y-116812572D01*
X196822572Y-116692732D01*
X196822575Y-116692728D01*
X196911542Y-116548492D01*
X196911547Y-116548481D01*
X196964855Y-116387606D01*
X196974999Y-116288322D01*
X196975000Y-116288309D01*
X196975000Y-116265000D01*
X196250000Y-116265000D01*
X195750000Y-116265000D01*
X195025001Y-116265000D01*
X176136250Y-116265000D01*
X176189999Y-116102797D01*
X176200500Y-116000009D01*
X176200499Y-114872953D01*
X176220184Y-114805915D01*
X176236822Y-114785269D01*
X176245115Y-114776976D01*
X176245115Y-114776975D01*
X176245120Y-114776971D01*
X176249379Y-114771478D01*
X176253152Y-114767061D01*
X176285062Y-114733082D01*
X176285067Y-114733071D01*
X176287227Y-114730101D01*
X176289530Y-114728324D01*
X176290406Y-114727392D01*
X176290556Y-114727533D01*
X176342553Y-114687430D01*
X176412166Y-114681445D01*
X176473964Y-114714045D01*
X176508327Y-114774880D01*
X176508718Y-114776616D01*
X176514589Y-114803603D01*
X176612567Y-115066294D01*
X176612569Y-115066298D01*
X176746927Y-115312357D01*
X176746932Y-115312365D01*
X176848457Y-115447988D01*
X176848458Y-115447988D01*
X177556496Y-114739949D01*
X177625018Y-114849881D01*
X177761637Y-114993604D01*
X177908044Y-115095507D01*
X177202010Y-115801540D01*
X177202011Y-115801541D01*
X177337634Y-115903067D01*
X177337642Y-115903072D01*
X177583701Y-116037430D01*
X177583705Y-116037432D01*
X177846400Y-116135411D01*
X178120341Y-116195004D01*
X178120348Y-116195005D01*
X178399999Y-116215007D01*
X178400001Y-116215007D01*
X178679651Y-116195005D01*
X178679658Y-116195004D01*
X178953599Y-116135411D01*
X179216294Y-116037432D01*
X179216298Y-116037430D01*
X179462357Y-115903072D01*
X179462358Y-115903071D01*
X179597988Y-115801540D01*
X178889738Y-115093291D01*
X178959859Y-115054371D01*
X179110317Y-114925207D01*
X179231695Y-114768400D01*
X179244943Y-114741391D01*
X179951540Y-115447988D01*
X180053071Y-115312358D01*
X180053072Y-115312357D01*
X180187430Y-115066298D01*
X180187432Y-115066294D01*
X180285411Y-114803599D01*
X180345004Y-114529658D01*
X180345005Y-114529651D01*
X180365007Y-114250001D01*
X180365007Y-114249998D01*
X180345005Y-113970348D01*
X180345004Y-113970341D01*
X180307948Y-113800000D01*
X182275001Y-113800000D01*
X182275001Y-113823322D01*
X182285144Y-113922607D01*
X182338452Y-114083481D01*
X182338457Y-114083492D01*
X182427424Y-114227728D01*
X182427427Y-114227732D01*
X182547267Y-114347572D01*
X182547271Y-114347575D01*
X182691507Y-114436542D01*
X182691518Y-114436547D01*
X182852393Y-114489855D01*
X182951683Y-114499999D01*
X182999999Y-114499998D01*
X183000000Y-114499998D01*
X183000000Y-113800000D01*
X183500000Y-113800000D01*
X183500000Y-114499999D01*
X183548308Y-114499999D01*
X183548322Y-114499998D01*
X183647607Y-114489855D01*
X183808481Y-114436547D01*
X183808492Y-114436542D01*
X183952728Y-114347575D01*
X183952732Y-114347572D01*
X184072572Y-114227732D01*
X184072575Y-114227728D01*
X184161542Y-114083492D01*
X184161547Y-114083481D01*
X184214855Y-113922606D01*
X184224999Y-113823322D01*
X184225000Y-113823309D01*
X184225000Y-113800000D01*
X186525001Y-113800000D01*
X186525001Y-113823322D01*
X186535144Y-113922607D01*
X186588452Y-114083481D01*
X186588457Y-114083492D01*
X186677424Y-114227728D01*
X186677427Y-114227732D01*
X186797267Y-114347572D01*
X186797271Y-114347575D01*
X186941507Y-114436542D01*
X186941518Y-114436547D01*
X187102393Y-114489855D01*
X187201683Y-114499999D01*
X187249999Y-114499998D01*
X187250000Y-114499998D01*
X187250000Y-113800000D01*
X187750000Y-113800000D01*
X187750000Y-114499999D01*
X187798308Y-114499999D01*
X187798322Y-114499998D01*
X187897607Y-114489855D01*
X188058481Y-114436547D01*
X188058492Y-114436542D01*
X188202728Y-114347575D01*
X188202732Y-114347572D01*
X188322572Y-114227732D01*
X188322575Y-114227728D01*
X188411542Y-114083492D01*
X188411547Y-114083481D01*
X188464855Y-113922606D01*
X188474999Y-113823322D01*
X188475000Y-113823309D01*
X188475000Y-113800000D01*
X187750000Y-113800000D01*
X187250000Y-113800000D01*
X186525001Y-113800000D01*
X184225000Y-113800000D01*
X183500000Y-113800000D01*
X183000000Y-113800000D01*
X182275001Y-113800000D01*
X180307948Y-113800000D01*
X180285411Y-113696400D01*
X180187432Y-113433705D01*
X180187430Y-113433701D01*
X180053072Y-113187642D01*
X180053067Y-113187634D01*
X179885059Y-112963201D01*
X179885043Y-112963183D01*
X179859040Y-112937180D01*
X179825555Y-112875857D01*
X179830539Y-112806165D01*
X179872411Y-112750232D01*
X179937875Y-112725815D01*
X179946715Y-112725499D01*
X180048344Y-112725499D01*
X180048352Y-112725498D01*
X180048355Y-112725498D01*
X180102760Y-112719940D01*
X180147708Y-112715349D01*
X180308697Y-112662003D01*
X180337946Y-112643961D01*
X180403043Y-112625500D01*
X182325453Y-112625500D01*
X182392492Y-112645185D01*
X182422724Y-112672595D01*
X182427036Y-112678049D01*
X182436659Y-112687672D01*
X182470144Y-112748995D01*
X182465160Y-112818687D01*
X182436665Y-112863028D01*
X182427430Y-112872264D01*
X182427424Y-112872271D01*
X182338457Y-113016507D01*
X182338452Y-113016518D01*
X182285144Y-113177393D01*
X182275000Y-113276677D01*
X182275000Y-113300000D01*
X184224999Y-113300000D01*
X184224999Y-113276692D01*
X184224998Y-113276677D01*
X184214855Y-113177392D01*
X184161547Y-113016518D01*
X184161542Y-113016507D01*
X184072575Y-112872271D01*
X184072572Y-112872267D01*
X184063339Y-112863034D01*
X184029854Y-112801711D01*
X184034838Y-112732019D01*
X184063343Y-112687668D01*
X184072968Y-112678044D01*
X184072970Y-112678039D01*
X184077281Y-112672590D01*
X184134303Y-112632213D01*
X184174548Y-112625500D01*
X186575453Y-112625500D01*
X186642492Y-112645185D01*
X186672724Y-112672595D01*
X186677036Y-112678049D01*
X186686659Y-112687672D01*
X186720144Y-112748995D01*
X186715160Y-112818687D01*
X186686665Y-112863028D01*
X186677430Y-112872264D01*
X186677424Y-112872271D01*
X186588457Y-113016507D01*
X186588452Y-113016518D01*
X186535144Y-113177393D01*
X186525000Y-113276677D01*
X186525000Y-113300000D01*
X188474999Y-113300000D01*
X188474999Y-113276692D01*
X188474998Y-113276677D01*
X188464855Y-113177392D01*
X188411547Y-113016518D01*
X188411542Y-113016507D01*
X188322575Y-112872271D01*
X188322572Y-112872267D01*
X188313339Y-112863034D01*
X188279854Y-112801711D01*
X188284838Y-112732019D01*
X188313343Y-112687668D01*
X188322968Y-112678044D01*
X188322970Y-112678039D01*
X188327281Y-112672590D01*
X188384303Y-112632213D01*
X188424548Y-112625500D01*
X190809457Y-112625500D01*
X190874553Y-112643961D01*
X190898377Y-112658656D01*
X190901643Y-112660671D01*
X190903803Y-112662003D01*
X191064792Y-112715349D01*
X191164155Y-112725500D01*
X191277691Y-112725499D01*
X191344729Y-112745183D01*
X191365371Y-112761818D01*
X192010261Y-113406708D01*
X191940141Y-113445629D01*
X191789683Y-113574793D01*
X191668305Y-113731600D01*
X191655056Y-113758609D01*
X190948458Y-113052011D01*
X190846927Y-113187642D01*
X190712569Y-113433701D01*
X190712567Y-113433705D01*
X190614588Y-113696400D01*
X190554995Y-113970341D01*
X190554994Y-113970348D01*
X190534993Y-114249998D01*
X190534993Y-114250001D01*
X190554994Y-114529651D01*
X190554995Y-114529658D01*
X190614588Y-114803599D01*
X190712567Y-115066294D01*
X190712569Y-115066298D01*
X190846927Y-115312357D01*
X190846932Y-115312365D01*
X190948457Y-115447988D01*
X190948458Y-115447988D01*
X191656496Y-114739949D01*
X191725018Y-114849881D01*
X191861637Y-114993604D01*
X192008044Y-115095507D01*
X191302010Y-115801540D01*
X191302011Y-115801541D01*
X191437634Y-115903067D01*
X191437642Y-115903072D01*
X191683701Y-116037430D01*
X191683705Y-116037432D01*
X191946400Y-116135411D01*
X192220341Y-116195004D01*
X192220348Y-116195005D01*
X192499999Y-116215007D01*
X192500001Y-116215007D01*
X192779651Y-116195005D01*
X192779658Y-116195004D01*
X193053599Y-116135411D01*
X193316294Y-116037432D01*
X193316298Y-116037430D01*
X193562357Y-115903072D01*
X193562358Y-115903071D01*
X193697988Y-115801540D01*
X192989738Y-115093291D01*
X193059859Y-115054371D01*
X193210317Y-114925207D01*
X193331695Y-114768400D01*
X193344943Y-114741391D01*
X194051540Y-115447988D01*
X194153071Y-115312358D01*
X194153072Y-115312357D01*
X194287430Y-115066298D01*
X194287432Y-115066294D01*
X194385411Y-114803599D01*
X194445004Y-114529658D01*
X194445005Y-114529651D01*
X194465007Y-114250001D01*
X194465007Y-114249998D01*
X194445005Y-113970348D01*
X194445004Y-113970341D01*
X194385411Y-113696400D01*
X194287432Y-113433705D01*
X194287430Y-113433701D01*
X194153072Y-113187642D01*
X194153067Y-113187634D01*
X194051541Y-113052011D01*
X194051540Y-113052010D01*
X193343502Y-113760048D01*
X193274982Y-113650119D01*
X193138363Y-113506396D01*
X192991954Y-113404492D01*
X193697988Y-112698458D01*
X193696862Y-112682720D01*
X193680356Y-112660671D01*
X193675370Y-112590980D01*
X193708851Y-112529660D01*
X193785468Y-112453044D01*
X193874503Y-112308697D01*
X193927849Y-112147708D01*
X193938000Y-112048345D01*
X193937999Y-111499499D01*
X193957683Y-111432461D01*
X194010487Y-111386706D01*
X194061999Y-111375500D01*
X194675501Y-111375500D01*
X194742540Y-111395185D01*
X194788295Y-111447989D01*
X194799501Y-111499500D01*
X194799501Y-112240018D01*
X194810000Y-112342796D01*
X194810001Y-112342799D01*
X194865185Y-112509331D01*
X194865187Y-112509336D01*
X194888385Y-112546946D01*
X194957288Y-112658656D01*
X195081344Y-112782712D01*
X195178097Y-112842389D01*
X195224821Y-112894335D01*
X195237000Y-112947927D01*
X195237000Y-113675626D01*
X195217315Y-113742665D01*
X195200681Y-113763307D01*
X195177032Y-113786955D01*
X195177029Y-113786959D01*
X195088001Y-113931294D01*
X195087996Y-113931305D01*
X195034651Y-114092290D01*
X195024500Y-114191647D01*
X195024500Y-114738337D01*
X195024501Y-114738355D01*
X195034650Y-114837707D01*
X195034651Y-114837710D01*
X195087996Y-114998694D01*
X195088001Y-114998705D01*
X195177029Y-115143040D01*
X195177032Y-115143044D01*
X195186660Y-115152672D01*
X195220145Y-115213995D01*
X195215161Y-115283687D01*
X195186663Y-115328031D01*
X195177428Y-115337265D01*
X195177424Y-115337271D01*
X195088457Y-115481507D01*
X195088452Y-115481518D01*
X195035144Y-115642393D01*
X195025000Y-115741677D01*
X195025000Y-115765000D01*
X196974999Y-115765000D01*
X196974999Y-115741692D01*
X196974998Y-115741677D01*
X196964855Y-115642392D01*
X196911547Y-115481518D01*
X196911542Y-115481507D01*
X196822575Y-115337271D01*
X196822572Y-115337267D01*
X196813339Y-115328034D01*
X196779854Y-115266711D01*
X196784838Y-115197019D01*
X196813343Y-115152668D01*
X196822968Y-115143044D01*
X196912003Y-114998697D01*
X196965349Y-114837708D01*
X196975500Y-114738345D01*
X196975499Y-114191656D01*
X196975434Y-114191024D01*
X196965349Y-114092292D01*
X196965348Y-114092289D01*
X196924941Y-113970348D01*
X196912003Y-113931303D01*
X196911999Y-113931297D01*
X196911998Y-113931294D01*
X196822970Y-113786959D01*
X196822967Y-113786955D01*
X196703043Y-113667031D01*
X196552550Y-113574205D01*
X196553346Y-113572914D01*
X196507153Y-113532238D01*
X196488000Y-113466033D01*
X196488000Y-112947927D01*
X196507685Y-112880888D01*
X196546901Y-112842390D01*
X196643656Y-112782712D01*
X196767712Y-112658656D01*
X196859814Y-112509334D01*
X196914999Y-112342797D01*
X196925500Y-112240009D01*
X196925500Y-112240001D01*
X199074500Y-112240001D01*
X199074501Y-112240018D01*
X199085000Y-112342796D01*
X199085001Y-112342799D01*
X199140185Y-112509331D01*
X199140187Y-112509336D01*
X199163385Y-112546946D01*
X199232288Y-112658656D01*
X199356344Y-112782712D01*
X199505666Y-112874814D01*
X199672203Y-112929999D01*
X199774991Y-112940500D01*
X200500008Y-112940499D01*
X200500016Y-112940498D01*
X200500019Y-112940498D01*
X200556302Y-112934748D01*
X200602797Y-112929999D01*
X200769334Y-112874814D01*
X200918656Y-112782712D01*
X201042712Y-112658656D01*
X201134814Y-112509334D01*
X201189999Y-112342797D01*
X201200500Y-112240009D01*
X201200499Y-111941600D01*
X201220183Y-111874563D01*
X201272987Y-111828808D01*
X201342146Y-111818864D01*
X201376901Y-111829219D01*
X201570670Y-111919575D01*
X201782023Y-111976207D01*
X201964926Y-111992208D01*
X201999998Y-111995277D01*
X202000000Y-111995277D01*
X202000002Y-111995277D01*
X202028254Y-111992805D01*
X202217977Y-111976207D01*
X202429330Y-111919575D01*
X202627639Y-111827102D01*
X202806877Y-111701598D01*
X202961598Y-111546877D01*
X203087102Y-111367639D01*
X203179575Y-111169330D01*
X203236207Y-110957977D01*
X203255277Y-110740000D01*
X203236207Y-110522023D01*
X203179575Y-110310670D01*
X203087102Y-110112362D01*
X203087100Y-110112359D01*
X203087099Y-110112357D01*
X202961599Y-109933124D01*
X202961598Y-109933123D01*
X202806877Y-109778402D01*
X202668978Y-109681844D01*
X202627638Y-109652897D01*
X202508441Y-109597315D01*
X202429330Y-109560425D01*
X202429326Y-109560424D01*
X202429322Y-109560422D01*
X202217977Y-109503793D01*
X202000002Y-109484723D01*
X201999998Y-109484723D01*
X201854682Y-109497436D01*
X201782023Y-109503793D01*
X201782020Y-109503793D01*
X201570677Y-109560422D01*
X201570668Y-109560426D01*
X201376904Y-109650780D01*
X201307826Y-109661272D01*
X201244042Y-109632752D01*
X201205803Y-109574276D01*
X201200499Y-109538398D01*
X201200499Y-109239998D01*
X201200498Y-109239981D01*
X201189999Y-109137203D01*
X201189998Y-109137200D01*
X201162134Y-109053112D01*
X201134814Y-108970666D01*
X201042712Y-108821344D01*
X200918656Y-108697288D01*
X200769334Y-108605186D01*
X200602797Y-108550001D01*
X200602795Y-108550000D01*
X200500010Y-108539500D01*
X199774998Y-108539500D01*
X199774980Y-108539501D01*
X199672203Y-108550000D01*
X199672200Y-108550001D01*
X199505668Y-108605185D01*
X199505663Y-108605187D01*
X199356342Y-108697289D01*
X199232289Y-108821342D01*
X199140187Y-108970663D01*
X199140186Y-108970666D01*
X199085001Y-109137203D01*
X199085001Y-109137204D01*
X199085000Y-109137204D01*
X199074500Y-109239983D01*
X199074500Y-112240001D01*
X196925500Y-112240001D01*
X196925499Y-109239992D01*
X196914999Y-109137203D01*
X196859814Y-108970666D01*
X196767712Y-108821344D01*
X196643656Y-108697288D01*
X196494334Y-108605186D01*
X196327797Y-108550001D01*
X196327795Y-108550000D01*
X196225010Y-108539500D01*
X195499998Y-108539500D01*
X195499980Y-108539501D01*
X195397203Y-108550000D01*
X195397200Y-108550001D01*
X195230668Y-108605185D01*
X195230663Y-108605187D01*
X195081342Y-108697289D01*
X194957289Y-108821342D01*
X194865187Y-108970663D01*
X194865186Y-108970666D01*
X194810001Y-109137203D01*
X194810001Y-109137204D01*
X194810000Y-109137204D01*
X194799500Y-109239983D01*
X194799500Y-110000500D01*
X194779815Y-110067539D01*
X194727011Y-110113294D01*
X194675500Y-110124500D01*
X194062000Y-110124500D01*
X193994961Y-110104815D01*
X193949206Y-110052011D01*
X193938000Y-110000500D01*
X193938000Y-109695831D01*
X193937999Y-109695818D01*
X193927936Y-109597316D01*
X193927936Y-109597315D01*
X193875049Y-109437713D01*
X193875045Y-109437707D01*
X193875044Y-109437704D01*
X193786783Y-109294612D01*
X193786780Y-109294608D01*
X193667891Y-109175719D01*
X193667887Y-109175716D01*
X193524795Y-109087455D01*
X193524789Y-109087452D01*
X193524787Y-109087451D01*
X193365185Y-109034564D01*
X193365183Y-109034563D01*
X193266681Y-109024500D01*
X193266674Y-109024500D01*
X192733326Y-109024500D01*
X192733318Y-109024500D01*
X192634816Y-109034563D01*
X192634815Y-109034564D01*
X192578841Y-109053112D01*
X192475215Y-109087450D01*
X192475204Y-109087455D01*
X192332112Y-109175716D01*
X192332108Y-109175719D01*
X192300181Y-109207647D01*
X192238858Y-109241132D01*
X192169166Y-109236148D01*
X192124819Y-109207647D01*
X192092891Y-109175719D01*
X192092887Y-109175716D01*
X191949795Y-109087455D01*
X191949789Y-109087452D01*
X191949787Y-109087451D01*
X191790185Y-109034564D01*
X191790183Y-109034563D01*
X191691681Y-109024500D01*
X191691674Y-109024500D01*
X191158326Y-109024500D01*
X191158318Y-109024500D01*
X191059816Y-109034563D01*
X191059815Y-109034564D01*
X191003841Y-109053112D01*
X190900215Y-109087450D01*
X190900204Y-109087455D01*
X190757112Y-109175716D01*
X190757108Y-109175719D01*
X190638219Y-109294608D01*
X190638216Y-109294612D01*
X190549955Y-109437704D01*
X190549951Y-109437713D01*
X190497064Y-109597315D01*
X190497064Y-109597316D01*
X190497063Y-109597316D01*
X190487000Y-109695818D01*
X190487000Y-110304181D01*
X190497063Y-110402683D01*
X190549950Y-110562284D01*
X190549955Y-110562295D01*
X190638216Y-110705387D01*
X190638219Y-110705391D01*
X190721976Y-110789148D01*
X190755461Y-110850471D01*
X190750477Y-110920163D01*
X190721977Y-110964509D01*
X190639532Y-111046955D01*
X190639529Y-111046959D01*
X190550501Y-111191294D01*
X190550496Y-111191305D01*
X190517957Y-111289504D01*
X190478185Y-111346949D01*
X190413669Y-111373772D01*
X190400251Y-111374500D01*
X188424547Y-111374500D01*
X188357508Y-111354815D01*
X188327276Y-111327405D01*
X188322967Y-111321955D01*
X188290516Y-111289504D01*
X188203044Y-111202032D01*
X188203041Y-111202030D01*
X188203040Y-111202029D01*
X188058705Y-111113001D01*
X188058699Y-111112998D01*
X188058697Y-111112997D01*
X188058694Y-111112996D01*
X187897709Y-111059651D01*
X187798346Y-111049500D01*
X187201662Y-111049500D01*
X187201644Y-111049501D01*
X187102292Y-111059650D01*
X187102289Y-111059651D01*
X186941305Y-111112996D01*
X186941294Y-111113001D01*
X186796959Y-111202029D01*
X186677032Y-111321955D01*
X186672724Y-111327405D01*
X186615704Y-111367785D01*
X186575453Y-111374500D01*
X184174547Y-111374500D01*
X184107508Y-111354815D01*
X184077276Y-111327405D01*
X184072967Y-111321955D01*
X184040516Y-111289504D01*
X183953044Y-111202032D01*
X183953041Y-111202030D01*
X183953040Y-111202029D01*
X183808705Y-111113001D01*
X183808699Y-111112998D01*
X183808697Y-111112997D01*
X183808694Y-111112996D01*
X183647709Y-111059651D01*
X183548346Y-111049500D01*
X182951662Y-111049500D01*
X182951644Y-111049501D01*
X182852292Y-111059650D01*
X182852289Y-111059651D01*
X182691305Y-111112996D01*
X182691294Y-111113001D01*
X182546959Y-111202029D01*
X182427032Y-111321955D01*
X182422724Y-111327405D01*
X182365704Y-111367785D01*
X182325453Y-111374500D01*
X180812249Y-111374500D01*
X180745210Y-111354815D01*
X180699455Y-111302011D01*
X180694543Y-111289504D01*
X180662003Y-111191303D01*
X180661999Y-111191297D01*
X180661998Y-111191294D01*
X180572970Y-111046959D01*
X180572969Y-111046958D01*
X180572968Y-111046956D01*
X180490521Y-110964509D01*
X180457038Y-110903186D01*
X180462022Y-110833495D01*
X180490519Y-110789152D01*
X180574281Y-110705391D01*
X180662549Y-110562287D01*
X180715436Y-110402685D01*
X180725500Y-110304174D01*
X180725500Y-109695826D01*
X180715436Y-109597315D01*
X180662549Y-109437713D01*
X180662545Y-109437707D01*
X180662544Y-109437704D01*
X180574283Y-109294612D01*
X180574280Y-109294608D01*
X180455391Y-109175719D01*
X180455387Y-109175716D01*
X180312295Y-109087455D01*
X180312289Y-109087452D01*
X180312287Y-109087451D01*
X180152685Y-109034564D01*
X180152683Y-109034563D01*
X180054181Y-109024500D01*
X180054174Y-109024500D01*
X179520826Y-109024500D01*
X179520818Y-109024500D01*
X179422316Y-109034563D01*
X179422315Y-109034564D01*
X179366341Y-109053112D01*
X179262715Y-109087450D01*
X179262704Y-109087455D01*
X179119612Y-109175716D01*
X179119608Y-109175719D01*
X179087681Y-109207647D01*
X179026358Y-109241132D01*
X178956666Y-109236148D01*
X178912319Y-109207647D01*
X178880391Y-109175719D01*
X178880387Y-109175716D01*
X178737295Y-109087455D01*
X178737289Y-109087452D01*
X178737287Y-109087451D01*
X178577685Y-109034564D01*
X178577683Y-109034563D01*
X178479181Y-109024500D01*
X178479174Y-109024500D01*
X177945826Y-109024500D01*
X177945818Y-109024500D01*
X177847316Y-109034563D01*
X177847315Y-109034564D01*
X177791341Y-109053112D01*
X177687715Y-109087450D01*
X177687704Y-109087455D01*
X177544612Y-109175716D01*
X177544608Y-109175719D01*
X177425719Y-109294608D01*
X177425716Y-109294612D01*
X177337455Y-109437704D01*
X177337451Y-109437713D01*
X177284564Y-109597315D01*
X177284564Y-109597316D01*
X177284563Y-109597316D01*
X177274500Y-109695818D01*
X177274500Y-110250500D01*
X177254815Y-110317539D01*
X177202011Y-110363294D01*
X177150500Y-110374500D01*
X176690004Y-110374500D01*
X176622965Y-110354815D01*
X176584465Y-110315596D01*
X176581425Y-110310668D01*
X176572968Y-110296956D01*
X176453044Y-110177032D01*
X176453040Y-110177029D01*
X176308705Y-110088001D01*
X176308699Y-110087998D01*
X176308697Y-110087997D01*
X176308694Y-110087996D01*
X176147709Y-110034651D01*
X176048346Y-110024500D01*
X175501662Y-110024500D01*
X175501644Y-110024501D01*
X175402292Y-110034650D01*
X175402289Y-110034651D01*
X175241305Y-110087996D01*
X175241294Y-110088001D01*
X175096959Y-110177029D01*
X175096953Y-110177033D01*
X175087324Y-110186663D01*
X175026000Y-110220146D01*
X174956308Y-110215159D01*
X174911965Y-110186660D01*
X174902732Y-110177427D01*
X174902728Y-110177424D01*
X174758492Y-110088457D01*
X174758481Y-110088452D01*
X174597606Y-110035144D01*
X174498322Y-110025000D01*
X174475000Y-110025000D01*
X174475000Y-111974999D01*
X174498308Y-111974999D01*
X174498322Y-111974998D01*
X174597607Y-111964855D01*
X174758481Y-111911547D01*
X174758492Y-111911542D01*
X174902731Y-111822573D01*
X174911959Y-111813345D01*
X174973279Y-111779856D01*
X175042971Y-111784835D01*
X175087327Y-111813339D01*
X175096956Y-111822968D01*
X175096963Y-111822972D01*
X175102404Y-111827274D01*
X175142785Y-111884293D01*
X175149500Y-111924546D01*
X175149500Y-112175500D01*
X175129815Y-112242539D01*
X175077011Y-112288294D01*
X175025500Y-112299500D01*
X174774999Y-112299500D01*
X174774980Y-112299501D01*
X174672203Y-112310000D01*
X174672200Y-112310001D01*
X174505668Y-112365185D01*
X174505663Y-112365187D01*
X174356342Y-112457289D01*
X174232289Y-112581342D01*
X174140187Y-112730663D01*
X174140185Y-112730668D01*
X174134112Y-112748995D01*
X174085001Y-112897203D01*
X174085001Y-112897204D01*
X174085000Y-112897204D01*
X174074500Y-112999983D01*
X174074500Y-116000001D01*
X171925500Y-116000001D01*
X171925499Y-112999992D01*
X171914999Y-112897203D01*
X171859814Y-112730666D01*
X171767712Y-112581344D01*
X171643656Y-112457288D01*
X171494334Y-112365186D01*
X171327797Y-112310001D01*
X171327795Y-112310000D01*
X171225010Y-112299500D01*
X170499998Y-112299500D01*
X170499980Y-112299501D01*
X170397203Y-112310000D01*
X170397200Y-112310001D01*
X170230668Y-112365185D01*
X170230663Y-112365187D01*
X170081342Y-112457289D01*
X169957289Y-112581342D01*
X169865187Y-112730663D01*
X169865185Y-112730668D01*
X169859112Y-112748995D01*
X169810001Y-112897203D01*
X169810001Y-112897204D01*
X169810000Y-112897204D01*
X169799500Y-112999983D01*
X169799500Y-114191024D01*
X169779815Y-114258063D01*
X169727011Y-114303818D01*
X169657853Y-114313762D01*
X169643407Y-114310799D01*
X169467977Y-114263793D01*
X169250002Y-114244723D01*
X169249998Y-114244723D01*
X169104682Y-114257436D01*
X169032023Y-114263793D01*
X169032020Y-114263793D01*
X168820677Y-114320422D01*
X168820668Y-114320426D01*
X168622361Y-114412898D01*
X168622357Y-114412900D01*
X168443121Y-114538402D01*
X168288402Y-114693121D01*
X168162900Y-114872357D01*
X168162898Y-114872361D01*
X168070426Y-115070668D01*
X168070422Y-115070677D01*
X168013793Y-115282020D01*
X168013793Y-115282023D01*
X168009768Y-115328031D01*
X167994723Y-115499997D01*
X167994723Y-115500002D01*
X155250500Y-115500002D01*
X155250500Y-110000002D01*
X166494723Y-110000002D01*
X166502422Y-110088001D01*
X166513546Y-110215159D01*
X166513793Y-110217975D01*
X166513793Y-110217979D01*
X166570422Y-110429322D01*
X166570424Y-110429326D01*
X166570425Y-110429330D01*
X166613647Y-110522020D01*
X166662897Y-110627638D01*
X166662898Y-110627639D01*
X166788402Y-110806877D01*
X166943123Y-110961598D01*
X167122361Y-111087102D01*
X167320670Y-111179575D01*
X167532023Y-111236207D01*
X167714926Y-111252208D01*
X167749998Y-111255277D01*
X167750000Y-111255277D01*
X167750002Y-111255277D01*
X167778254Y-111252805D01*
X167810316Y-111250000D01*
X173275001Y-111250000D01*
X173275001Y-111298322D01*
X173285144Y-111397607D01*
X173338452Y-111558481D01*
X173338457Y-111558492D01*
X173427424Y-111702728D01*
X173427427Y-111702732D01*
X173547267Y-111822572D01*
X173547271Y-111822575D01*
X173691507Y-111911542D01*
X173691518Y-111911547D01*
X173852393Y-111964855D01*
X173951683Y-111974999D01*
X173975000Y-111974998D01*
X173975000Y-111250000D01*
X173275001Y-111250000D01*
X167810316Y-111250000D01*
X167967977Y-111236207D01*
X168179330Y-111179575D01*
X168377639Y-111087102D01*
X168556877Y-110961598D01*
X168711598Y-110806877D01*
X168751424Y-110750000D01*
X173275000Y-110750000D01*
X173975000Y-110750000D01*
X173975000Y-110024999D01*
X173951693Y-110025000D01*
X173951674Y-110025001D01*
X173852392Y-110035144D01*
X173691518Y-110088452D01*
X173691507Y-110088457D01*
X173547271Y-110177424D01*
X173547267Y-110177427D01*
X173427427Y-110297267D01*
X173427424Y-110297271D01*
X173338457Y-110441507D01*
X173338452Y-110441518D01*
X173285144Y-110602393D01*
X173275000Y-110701677D01*
X173275000Y-110750000D01*
X168751424Y-110750000D01*
X168837102Y-110627639D01*
X168929575Y-110429330D01*
X168986207Y-110217977D01*
X169003090Y-110024999D01*
X169005277Y-110000002D01*
X169005277Y-109999997D01*
X168999426Y-109933123D01*
X168986207Y-109782023D01*
X168929575Y-109570670D01*
X168837102Y-109372362D01*
X168837100Y-109372359D01*
X168837099Y-109372357D01*
X168711597Y-109193121D01*
X168702603Y-109184127D01*
X168669118Y-109122804D01*
X168674102Y-109053112D01*
X168702603Y-109008765D01*
X168740705Y-108970663D01*
X168792712Y-108918656D01*
X168884814Y-108769334D01*
X168939999Y-108602797D01*
X168950500Y-108500009D01*
X168950499Y-106450001D01*
X176434492Y-106450001D01*
X176454498Y-106729726D01*
X176513865Y-107002628D01*
X176514109Y-107003748D01*
X176537132Y-107065474D01*
X176612111Y-107266503D01*
X176612113Y-107266507D01*
X176746505Y-107512628D01*
X176746510Y-107512636D01*
X176914561Y-107737126D01*
X176914577Y-107737144D01*
X177112855Y-107935422D01*
X177112873Y-107935438D01*
X177337363Y-108103489D01*
X177337371Y-108103494D01*
X177583492Y-108237886D01*
X177583496Y-108237888D01*
X177583498Y-108237889D01*
X177846252Y-108335891D01*
X177983265Y-108365696D01*
X178120273Y-108395501D01*
X178120275Y-108395501D01*
X178120279Y-108395502D01*
X178368855Y-108413280D01*
X178399999Y-108415508D01*
X178400000Y-108415508D01*
X178400001Y-108415508D01*
X178428024Y-108413503D01*
X178679721Y-108395502D01*
X178953748Y-108335891D01*
X179216502Y-108237889D01*
X179462634Y-108103491D01*
X179687134Y-107935432D01*
X179885432Y-107737134D01*
X180053491Y-107512634D01*
X180187889Y-107266502D01*
X180285891Y-107003748D01*
X180345502Y-106729721D01*
X180365508Y-106450001D01*
X190534492Y-106450001D01*
X190554498Y-106729726D01*
X190613865Y-107002628D01*
X190614109Y-107003748D01*
X190637132Y-107065474D01*
X190712111Y-107266503D01*
X190712113Y-107266507D01*
X190846505Y-107512628D01*
X190846510Y-107512636D01*
X191014561Y-107737126D01*
X191014577Y-107737144D01*
X191212855Y-107935422D01*
X191212873Y-107935438D01*
X191437363Y-108103489D01*
X191437371Y-108103494D01*
X191683492Y-108237886D01*
X191683496Y-108237888D01*
X191683498Y-108237889D01*
X191946252Y-108335891D01*
X192083265Y-108365696D01*
X192220273Y-108395501D01*
X192220275Y-108395501D01*
X192220279Y-108395502D01*
X192468855Y-108413280D01*
X192499999Y-108415508D01*
X192500000Y-108415508D01*
X192500001Y-108415508D01*
X192528024Y-108413503D01*
X192779721Y-108395502D01*
X193053748Y-108335891D01*
X193316502Y-108237889D01*
X193562634Y-108103491D01*
X193787134Y-107935432D01*
X193985432Y-107737134D01*
X194153491Y-107512634D01*
X194287889Y-107266502D01*
X194385891Y-107003748D01*
X194445502Y-106729721D01*
X194465508Y-106450000D01*
X194445502Y-106170279D01*
X194385891Y-105896252D01*
X194287889Y-105633498D01*
X194214989Y-105499992D01*
X194153494Y-105387371D01*
X194153489Y-105387363D01*
X193985438Y-105162873D01*
X193985422Y-105162855D01*
X193787144Y-104964577D01*
X193787126Y-104964561D01*
X193562636Y-104796510D01*
X193562628Y-104796505D01*
X193401544Y-104708546D01*
X193352139Y-104659140D01*
X193337287Y-104590868D01*
X193361704Y-104525403D01*
X193401545Y-104490881D01*
X193562360Y-104403070D01*
X193697988Y-104301540D01*
X192989738Y-103593291D01*
X193059859Y-103554371D01*
X193210317Y-103425207D01*
X193331695Y-103268400D01*
X193344943Y-103241391D01*
X194051540Y-103947988D01*
X194153071Y-103812358D01*
X194153072Y-103812357D01*
X194287430Y-103566298D01*
X194287432Y-103566294D01*
X194385411Y-103303599D01*
X194445004Y-103029658D01*
X194445005Y-103029651D01*
X194465007Y-102750001D01*
X194465007Y-102749998D01*
X194445005Y-102470348D01*
X194445004Y-102470341D01*
X194385411Y-102196400D01*
X194287432Y-101933705D01*
X194287430Y-101933701D01*
X194153072Y-101687642D01*
X194153067Y-101687634D01*
X194051541Y-101552011D01*
X194051540Y-101552010D01*
X193343502Y-102260048D01*
X193274982Y-102150119D01*
X193138363Y-102006396D01*
X192991954Y-101904492D01*
X193697988Y-101198458D01*
X193697988Y-101198457D01*
X193562365Y-101096932D01*
X193562357Y-101096927D01*
X193316298Y-100962569D01*
X193316294Y-100962567D01*
X193053599Y-100864588D01*
X192779658Y-100804995D01*
X192779651Y-100804994D01*
X192500001Y-100784993D01*
X192499999Y-100784993D01*
X192220348Y-100804994D01*
X192220341Y-100804995D01*
X191946400Y-100864588D01*
X191683705Y-100962567D01*
X191683701Y-100962569D01*
X191437642Y-101096927D01*
X191302011Y-101198458D01*
X192010261Y-101906708D01*
X191940141Y-101945629D01*
X191789683Y-102074793D01*
X191668305Y-102231600D01*
X191655056Y-102258609D01*
X190948458Y-101552011D01*
X190846927Y-101687642D01*
X190712569Y-101933701D01*
X190712567Y-101933705D01*
X190614588Y-102196400D01*
X190554995Y-102470341D01*
X190554994Y-102470348D01*
X190534993Y-102749998D01*
X190534993Y-102750001D01*
X190554994Y-103029651D01*
X190554995Y-103029658D01*
X190614588Y-103303599D01*
X190712567Y-103566294D01*
X190712569Y-103566298D01*
X190846927Y-103812357D01*
X190846932Y-103812365D01*
X190948457Y-103947988D01*
X190948458Y-103947988D01*
X191656496Y-103239949D01*
X191725018Y-103349881D01*
X191861637Y-103493604D01*
X192008044Y-103595507D01*
X191302010Y-104301540D01*
X191302011Y-104301541D01*
X191437634Y-104403067D01*
X191437641Y-104403072D01*
X191598455Y-104490882D01*
X191647860Y-104540287D01*
X191662712Y-104608560D01*
X191638295Y-104674024D01*
X191598456Y-104708546D01*
X191437365Y-104796509D01*
X191437363Y-104796510D01*
X191212873Y-104964561D01*
X191212855Y-104964577D01*
X191014577Y-105162855D01*
X191014561Y-105162873D01*
X190846510Y-105387363D01*
X190846505Y-105387371D01*
X190712113Y-105633492D01*
X190712111Y-105633496D01*
X190614107Y-105896258D01*
X190554498Y-106170273D01*
X190534492Y-106449998D01*
X190534492Y-106450001D01*
X180365508Y-106450001D01*
X180365508Y-106450000D01*
X180345502Y-106170279D01*
X180285891Y-105896252D01*
X180187889Y-105633498D01*
X180114989Y-105499992D01*
X180053494Y-105387371D01*
X180053489Y-105387363D01*
X179885438Y-105162873D01*
X179885422Y-105162855D01*
X179687144Y-104964577D01*
X179687126Y-104964561D01*
X179462636Y-104796510D01*
X179462628Y-104796505D01*
X179301544Y-104708546D01*
X179252139Y-104659140D01*
X179237287Y-104590868D01*
X179261704Y-104525403D01*
X179301545Y-104490881D01*
X179462360Y-104403070D01*
X179597988Y-104301540D01*
X178889738Y-103593291D01*
X178959859Y-103554371D01*
X179110317Y-103425207D01*
X179231695Y-103268400D01*
X179244943Y-103241390D01*
X179951540Y-103947988D01*
X180053071Y-103812358D01*
X180053072Y-103812357D01*
X180187430Y-103566298D01*
X180187432Y-103566294D01*
X180285411Y-103303599D01*
X180345004Y-103029658D01*
X180345005Y-103029651D01*
X180365007Y-102750001D01*
X180365007Y-102749998D01*
X180345005Y-102470348D01*
X180345004Y-102470341D01*
X180285411Y-102196400D01*
X180187432Y-101933705D01*
X180187430Y-101933701D01*
X180053072Y-101687642D01*
X180053067Y-101687634D01*
X179951541Y-101552011D01*
X179951540Y-101552010D01*
X179243502Y-102260048D01*
X179174982Y-102150119D01*
X179038363Y-102006396D01*
X178891954Y-101904492D01*
X179597988Y-101198458D01*
X179597988Y-101198457D01*
X179462365Y-101096932D01*
X179462357Y-101096927D01*
X179216298Y-100962569D01*
X179216294Y-100962567D01*
X178953599Y-100864588D01*
X178679658Y-100804995D01*
X178679651Y-100804994D01*
X178400001Y-100784993D01*
X178399999Y-100784993D01*
X178120348Y-100804994D01*
X178120341Y-100804995D01*
X177846400Y-100864588D01*
X177583705Y-100962567D01*
X177583701Y-100962569D01*
X177337642Y-101096927D01*
X177202011Y-101198458D01*
X177910261Y-101906708D01*
X177840141Y-101945629D01*
X177689683Y-102074793D01*
X177568305Y-102231600D01*
X177555056Y-102258609D01*
X176848458Y-101552011D01*
X176746927Y-101687642D01*
X176612569Y-101933701D01*
X176612567Y-101933705D01*
X176514588Y-102196400D01*
X176454995Y-102470341D01*
X176454994Y-102470348D01*
X176434993Y-102749998D01*
X176434993Y-102750001D01*
X176454994Y-103029651D01*
X176454995Y-103029658D01*
X176514588Y-103303599D01*
X176612567Y-103566294D01*
X176612569Y-103566298D01*
X176746927Y-103812357D01*
X176746932Y-103812365D01*
X176848457Y-103947988D01*
X176848458Y-103947988D01*
X177556496Y-103239949D01*
X177625018Y-103349881D01*
X177761637Y-103493604D01*
X177908044Y-103595507D01*
X177202010Y-104301540D01*
X177202011Y-104301541D01*
X177337634Y-104403067D01*
X177337641Y-104403072D01*
X177498455Y-104490882D01*
X177547860Y-104540287D01*
X177562712Y-104608560D01*
X177538295Y-104674024D01*
X177498456Y-104708546D01*
X177337365Y-104796509D01*
X177337363Y-104796510D01*
X177112873Y-104964561D01*
X177112855Y-104964577D01*
X176914577Y-105162855D01*
X176914561Y-105162873D01*
X176746510Y-105387363D01*
X176746505Y-105387371D01*
X176612113Y-105633492D01*
X176612111Y-105633496D01*
X176514107Y-105896258D01*
X176454498Y-106170273D01*
X176434492Y-106449998D01*
X176434492Y-106450001D01*
X168950499Y-106450001D01*
X168950499Y-105499992D01*
X168939999Y-105397203D01*
X168884814Y-105230666D01*
X168792712Y-105081344D01*
X168668656Y-104957288D01*
X168519334Y-104865186D01*
X168352797Y-104810001D01*
X168352795Y-104810000D01*
X168250010Y-104799500D01*
X167524998Y-104799500D01*
X167524980Y-104799501D01*
X167422203Y-104810000D01*
X167422200Y-104810001D01*
X167255668Y-104865185D01*
X167255663Y-104865187D01*
X167106342Y-104957289D01*
X166982289Y-105081342D01*
X166890187Y-105230663D01*
X166890186Y-105230666D01*
X166835001Y-105397203D01*
X166835001Y-105397204D01*
X166835000Y-105397204D01*
X166824500Y-105499983D01*
X166824500Y-108500001D01*
X166824501Y-108500018D01*
X166835000Y-108602796D01*
X166835001Y-108602799D01*
X166890185Y-108769331D01*
X166890186Y-108769334D01*
X166961558Y-108885048D01*
X166979998Y-108952439D01*
X166959075Y-109019102D01*
X166943700Y-109037824D01*
X166788402Y-109193121D01*
X166662900Y-109372357D01*
X166662898Y-109372361D01*
X166570426Y-109570668D01*
X166570422Y-109570677D01*
X166513793Y-109782020D01*
X166513793Y-109782024D01*
X166494723Y-109999997D01*
X166494723Y-110000002D01*
X155250500Y-110000002D01*
X155250500Y-105750002D01*
X161494723Y-105750002D01*
X161513793Y-105967975D01*
X161513793Y-105967979D01*
X161570422Y-106179322D01*
X161570424Y-106179326D01*
X161570425Y-106179330D01*
X161616661Y-106278484D01*
X161662897Y-106377638D01*
X161662898Y-106377639D01*
X161788402Y-106556877D01*
X161943123Y-106711598D01*
X162122361Y-106837102D01*
X162320670Y-106929575D01*
X162457594Y-106966263D01*
X162517254Y-107002628D01*
X162547783Y-107065474D01*
X162549500Y-107086038D01*
X162549500Y-108500001D01*
X162549501Y-108500018D01*
X162560000Y-108602796D01*
X162560001Y-108602799D01*
X162615185Y-108769331D01*
X162615186Y-108769334D01*
X162707288Y-108918656D01*
X162831344Y-109042712D01*
X162980666Y-109134814D01*
X163147203Y-109189999D01*
X163249991Y-109200500D01*
X163975008Y-109200499D01*
X163975016Y-109200498D01*
X163975019Y-109200498D01*
X164031302Y-109194748D01*
X164077797Y-109189999D01*
X164244334Y-109134814D01*
X164393656Y-109042712D01*
X164517712Y-108918656D01*
X164609814Y-108769334D01*
X164664999Y-108602797D01*
X164675500Y-108500009D01*
X164675499Y-105499992D01*
X164664999Y-105397203D01*
X164609814Y-105230666D01*
X164517712Y-105081344D01*
X164393656Y-104957288D01*
X164244334Y-104865186D01*
X164077797Y-104810001D01*
X164077795Y-104810000D01*
X163975016Y-104799500D01*
X163975009Y-104799500D01*
X163611823Y-104799500D01*
X163544784Y-104779815D01*
X163540732Y-104777097D01*
X163377639Y-104662898D01*
X163377640Y-104662898D01*
X163377638Y-104662897D01*
X163223170Y-104590868D01*
X163179330Y-104570425D01*
X163179326Y-104570424D01*
X163179322Y-104570422D01*
X162967977Y-104513793D01*
X162750002Y-104494723D01*
X162749998Y-104494723D01*
X162638268Y-104504498D01*
X162532023Y-104513793D01*
X162532020Y-104513793D01*
X162320677Y-104570422D01*
X162320668Y-104570426D01*
X162122361Y-104662898D01*
X162122357Y-104662900D01*
X161943121Y-104788402D01*
X161788402Y-104943121D01*
X161662900Y-105122357D01*
X161662898Y-105122361D01*
X161570426Y-105320668D01*
X161570422Y-105320677D01*
X161513793Y-105532020D01*
X161513793Y-105532024D01*
X161494723Y-105749997D01*
X161494723Y-105750002D01*
X155250500Y-105750002D01*
X155250500Y-100124500D01*
X155270185Y-100057461D01*
X155322989Y-100011706D01*
X155374500Y-100000500D01*
X204875500Y-100000500D01*
X204942539Y-100020185D01*
G37*
G04 #@! TD.AperFunction*
M02*
