G04 #@! TF.GenerationSoftware,KiCad,Pcbnew,7.0.9*
G04 #@! TF.CreationDate,2023-11-27T12:39:36-05:00*
G04 #@! TF.ProjectId,GE_3T_Wantcom_motherboard,47455f33-545f-4576-916e-74636f6d5f6d,0*
G04 #@! TF.SameCoordinates,Original*
G04 #@! TF.FileFunction,Soldermask,Bot*
G04 #@! TF.FilePolarity,Negative*
%FSLAX46Y46*%
G04 Gerber Fmt 4.6, Leading zero omitted, Abs format (unit mm)*
G04 Created by KiCad (PCBNEW 7.0.9) date 2023-11-27 12:39:36*
%MOMM*%
%LPD*%
G01*
G04 APERTURE LIST*
G04 Aperture macros list*
%AMRoundRect*
0 Rectangle with rounded corners*
0 $1 Rounding radius*
0 $2 $3 $4 $5 $6 $7 $8 $9 X,Y pos of 4 corners*
0 Add a 4 corners polygon primitive as box body*
4,1,4,$2,$3,$4,$5,$6,$7,$8,$9,$2,$3,0*
0 Add four circle primitives for the rounded corners*
1,1,$1+$1,$2,$3*
1,1,$1+$1,$4,$5*
1,1,$1+$1,$6,$7*
1,1,$1+$1,$8,$9*
0 Add four rect primitives between the rounded corners*
20,1,$1+$1,$2,$3,$4,$5,0*
20,1,$1+$1,$4,$5,$6,$7,0*
20,1,$1+$1,$6,$7,$8,$9,0*
20,1,$1+$1,$8,$9,$2,$3,0*%
G04 Aperture macros list end*
%ADD10C,3.500000*%
%ADD11C,2.920000*%
%ADD12R,1.500000X1.500000*%
%ADD13RoundRect,0.225000X0.225000X0.250000X-0.225000X0.250000X-0.225000X-0.250000X0.225000X-0.250000X0*%
%ADD14RoundRect,0.250000X-0.312500X-1.450000X0.312500X-1.450000X0.312500X1.450000X-0.312500X1.450000X0*%
%ADD15RoundRect,0.250000X0.312500X1.450000X-0.312500X1.450000X-0.312500X-1.450000X0.312500X-1.450000X0*%
%ADD16RoundRect,0.225000X0.250000X-0.225000X0.250000X0.225000X-0.250000X0.225000X-0.250000X-0.225000X0*%
%ADD17RoundRect,0.218750X-0.218750X-0.256250X0.218750X-0.256250X0.218750X0.256250X-0.218750X0.256250X0*%
%ADD18RoundRect,0.225000X-0.225000X-0.250000X0.225000X-0.250000X0.225000X0.250000X-0.225000X0.250000X0*%
G04 APERTURE END LIST*
D10*
X158000000Y-114750000D03*
X167500000Y-102500000D03*
X202500000Y-102500000D03*
X202500000Y-114750000D03*
D11*
X178400000Y-106450000D03*
X192500000Y-106450000D03*
X178400000Y-102750000D03*
X178400000Y-114250000D03*
D12*
X181450000Y-102450000D03*
X181450000Y-106450000D03*
X181450000Y-110450000D03*
X181450000Y-114450000D03*
X185450000Y-102450000D03*
X185450000Y-106450000D03*
X185450000Y-110450000D03*
X185450000Y-114450000D03*
X189450000Y-102450000D03*
X189450000Y-106450000D03*
X189450000Y-110450000D03*
X189450000Y-114450000D03*
D11*
X192500000Y-102750000D03*
X192500000Y-114250000D03*
D13*
X179775000Y-111750000D03*
X178225000Y-111750000D03*
D14*
X170862500Y-114500000D03*
X175137500Y-114500000D03*
D13*
X192987500Y-111750000D03*
X191437500Y-111750000D03*
D15*
X200137500Y-110740000D03*
X195862500Y-110740000D03*
D16*
X183250000Y-113550000D03*
X183250000Y-112000000D03*
D17*
X191425000Y-110000000D03*
X193000000Y-110000000D03*
X178212500Y-110000000D03*
X179787500Y-110000000D03*
D18*
X174225000Y-111000000D03*
X175775000Y-111000000D03*
D14*
X163612500Y-107000000D03*
X167887500Y-107000000D03*
D16*
X187500000Y-113550000D03*
X187500000Y-112000000D03*
X196000000Y-116015000D03*
X196000000Y-114465000D03*
M02*
